<?xml version="1.0" standalone="no"?>
<!DOCTYPE svg PUBLIC "-//W3C//DTD SVG 1.1//EN" "http://www.w3.org/Graphics/SVG/1.1/DTD/svg11.dtd" >
<svg>
<metadata>
Created by FontForge 20090622 at Tue Jul  5 19:07:55 2016
 By deploy user
2001 Peter Bilak, published by FontShop International for the FontFont library.
</metadata>
<defs>
<font id="EurekaMono" horiz-adv-x="600" >
  <font-face 
    font-family="Eureka Mono"
    font-weight="500"
    font-stretch="normal"
    units-per-em="1000"
    panose-1="0 0 0 0 0 0 0 0 0 0"
    ascent="800"
    descent="-200"
    x-height="394"
    cap-height="577"
    bbox="0 -225 600 801"
    underline-thickness="20"
    underline-position="-123"
    unicode-range="U+0020-U+FB02"
  />
<missing-glyph 
d="M33 0v666h265v-666h-265zM66 33h199v600h-199v-600z" />
    <glyph glyph-name=".notdef" 
d="M33 0v666h265v-666h-265zM66 33h199v600h-199v-600z" />
    <glyph glyph-name=".null" horiz-adv-x="0" 
 />
    <glyph glyph-name="nonmarkingreturn" 
 />
    <glyph glyph-name="space" unicode=" " 
 />
    <glyph glyph-name="exclam" unicode="!" 
d="M340 382q0 -26 -5 -75.5t-10 -86.5l-5 -36h-42q-20 139 -20 198v195h82v-195zM358 50q0 -24 -17 -41t-41 -17t-41 17t-17 41t17 41t41 17t41 -17t17 -41z" />
    <glyph glyph-name="quotedbl" unicode="&#x22;" 
d="M402 643l-11 -190h-45l-11 190h67zM265 643l-11 -190h-45l-11 190h67z" />
    <glyph glyph-name="numbersign" unicode="#" 
d="M500 334h-84l-16 -121h80v-60h-89l-20 -153h-61l20 153h-93l-20 -153h-60l20 153h-77v60h86l17 121h-81v60h89l23 183h60l-24 -183h95l23 183h60l-24 -183h76v-60zM356 334h-94l-16 -121h94z" />
    <glyph glyph-name="dollar" unicode="$" 
d="M472 148q0 -69 -42.5 -111t-117.5 -50l1 -91h-60l2 92q-68 8 -135 43l31 62q25 -16 64 -29.5t69 -13.5q48 0 78 23.5t30 64.5q0 33 -19 60t-47 44l-61 37.5t-61 40.5t-47 53.5t-19 75.5q0 49 33 87t83 52l-1 89h60l-1 -84q73 -2 137 -39l-29 -58q-65 37 -123 37
q-31 0 -55.5 -22.5t-24.5 -56.5t26.5 -61.5t63.5 -49l74.5 -45.5t64 -62t26.5 -88z" />
    <glyph glyph-name="percent" unicode="%" 
d="M269 440q0 -83 -24 -119t-60 -36q-38 0 -61 38.5t-23 112.5q0 76 24 116t61 40q25 0 43 -16t26 -42t11 -48.5t3 -45.5zM491 143q0 -83 -24 -119t-60 -36q-38 0 -61 38.5t-23 112.5q0 76 23.5 116t61.5 40q25 0 43 -16t26 -42t11 -48.5t3 -45.5zM429 568l-221 -579l-48 14
l220 580zM215 438q0 2 0.5 12t0.5 18t-0.5 20t-2.5 20.5t-5.5 17t-9 13t-13.5 4.5q-19 0 -24 -25t-5 -80q0 -56 5.5 -80.5t24.5 -24.5q20 0 24.5 23.5t4.5 81.5zM437 141q0 2 0.5 12t0 18t-1 20t-2.5 20.5t-5 17t-8.5 13t-13.5 4.5q-19 0 -24 -25t-5 -80q0 -56 5.5 -80.5
t24.5 -24.5q20 0 24.5 23.5t4.5 81.5z" />
    <glyph glyph-name="ampersand" unicode="&#x26;" 
d="M507 312h-55v-312h-66v64q-21 -29 -54.5 -51t-73.5 -22q-81 0 -127 50t-46 137q0 59 40 107t84 59q-95 36 -95 114q0 49 39.5 89t101.5 40q67 0 136 -37l-23 -44q-53 24 -106 24q-34 0 -55 -23.5t-21 -55.5q0 -37 24 -60.5t63 -23.5v-55q-46 0 -79 -39.5t-33 -93.5
t28 -89.5t77 -35.5q35 0 61.5 16t58.5 50v192h-61v55h182v-55z" />
    <glyph glyph-name="quotesingle" unicode="'" 
d="M334 643l-12 -190h-45l-11 190h68z" />
    <glyph glyph-name="parenleft" unicode="(" 
d="M459 594q-74 -6 -133.5 -63.5t-88.5 -134.5t-29 -154q0 -122 66.5 -226.5t180.5 -125.5l-12 -55q-88 10 -160 72.5t-111 151.5t-39 183q0 96 39.5 186t112.5 152t162 70z" />
    <glyph glyph-name="parenright" unicode=")" 
d="M459 242q0 -94 -39 -183t-111 -151.5t-160 -72.5l-12 55q114 21 180.5 125.5t66.5 226.5q0 77 -29 154t-88.5 134.5t-133.5 63.5l12 56q89 -8 162 -70t112.5 -152t39.5 -186z" />
    <glyph glyph-name="asterisk" unicode="*" 
d="M422 372l-63 -36l-57 149l15 9zM421 649l-103 -124l-15 10l57 148zM294 536l-15 -10l-102 121l61 35zM295 486l-61 -151l-57 36l103 124zM474 475l-152 24v17l152 27v-68zM274 501l-148 -26v68l148 -25v-17z" />
    <glyph glyph-name="plus" unicode="+" 
d="M500 172h-171v-172h-57v172h-172v54h171v170h57v-170h172v-54z" />
    <glyph glyph-name="comma" unicode="," 
d="M362 49q0 -15 -11 -35l-72 -140l-49 20q37 93 37 111q0 13 -5.5 24t-10.5 15l-5 5q0 22 17.5 40.5t40.5 18.5q24 0 41 -17t17 -42z" />
    <glyph glyph-name="hyphen" unicode="-" 
d="M419 184h-238v64h238v-64z" />
    <glyph glyph-name="period" unicode="." 
d="M358 50q0 -24 -17 -41t-41 -17t-41 17t-17 41t17 41t41 17t41 -17t17 -41z" />
    <glyph glyph-name="slash" unicode="/" 
d="M505 577l-358 -737l-52 25l359 736z" />
    <glyph glyph-name="zero" unicode="0" 
d="M494 288q0 -136 -51.5 -217t-142.5 -81q-98 0 -146 83.5t-48 214.5q0 136 52 219t141 83q94 0 144.5 -82t50.5 -220zM346 517q-19 12 -46 12q-64 0 -90.5 -61.5t-26.5 -179.5q0 -113 26 -174zM416 288q0 117 -26 176l-139 -403q20 -13 48 -13q41 0 68 33.5t37.5 85
t11.5 121.5z" />
    <glyph glyph-name="one" unicode="1" 
d="M471 0h-342v60h137v459h-145v58h213v-517h137v-60z" />
    <glyph glyph-name="two" unicode="2" 
d="M473 431q0 -19 -5 -39t-12 -37t-19.5 -37l-22 -34t-24.5 -31.5l-22.5 -26.5t-21 -23l-15.5 -16l-119 -127h254v-60h-347v44l150 174q126 144 126 209q0 43 -29 70t-75 27q-63 0 -124 -40l-32 53q69 53 153 53q74 0 129.5 -43t55.5 -116z" />
    <glyph glyph-name="three" unicode="3" 
d="M469 162q0 -72 -53.5 -121.5t-142.5 -49.5q-40 0 -85 10t-65 24l27 52q17 -11 52.5 -20.5t68.5 -9.5q60 0 90.5 33.5t30.5 82.5q-1 59 -40 91.5t-98 32.5h-45v50h43q45 0 83.5 27.5t38.5 76.5q0 41 -24 66t-69 25q-58 0 -109 -30l-27 47q23 15 67 28t82 13
q72 0 113.5 -40.5t41.5 -97.5q0 -45 -25.5 -81.5t-73.5 -55.5q48 -11 83.5 -51.5t35.5 -101.5z" />
    <glyph glyph-name="four" unicode="4" 
d="M480 152h-64v-152h-72v152h-232v42l231 383h72v-367h65v-58zM344 210v266l-149 -266h149z" />
    <glyph glyph-name="five" unicode="5" 
d="M465 192q0 -90 -58 -145.5t-144 -55.5q-37 0 -76 9.5t-60 22.5l30 55q43 -26 104 -26q55 0 91 32.5t36 99.5q0 63 -38.5 95.5t-112.5 32.5q-42 0 -72 -5l41 270h236v-58h-179l-24 -150q6 1 32 1q80 0 137 -49.5t57 -128.5z" />
    <glyph glyph-name="six" unicode="6" 
d="M481 183q1 -87 -49.5 -139.5t-127.5 -52.5q-62 0 -106 34.5t-62.5 83t-20.5 107.5q-5 132 75.5 240.5t222.5 149.5l22 -49q-168 -67 -218 -198q41 19 83 19q75 0 127.5 -51.5t53.5 -143.5zM409 180q-2 60 -33 100.5t-77 40.5q-44 0 -101 -21q-9 -43 -9 -85q0 -69 34 -118
t83 -49q47 0 75.5 36.5t27.5 95.5z" />
    <glyph glyph-name="seven" unicode="7" 
d="M469 535l-240 -547l-69 12l224 514h-261v63h346v-42z" />
    <glyph glyph-name="eight" unicode="8" 
d="M482 156q0 -72 -52.5 -118.5t-131.5 -46.5q-82 0 -131 45.5t-49 108.5q0 50 34 93.5t88 69.5q-46 23 -73.5 59t-27.5 74q0 67 48 108t118 41q74 0 116 -41t42 -97q0 -88 -98 -138q117 -58 117 -158zM407 150q0 50 -28 79.5t-85 51.5q-97 -38 -99 -126q-1 -48 27.5 -78.5
t76.5 -30.5q50 0 79 27.5t29 76.5zM392 444q1 44 -22 68.5t-67 24.5q-43 0 -67 -25t-24 -65q0 -43 25.5 -68.5t73.5 -42.5q81 38 81 108z" />
    <glyph glyph-name="nine" unicode="9" 
d="M479 364q5 -132 -75.5 -240.5t-222.5 -149.5l-22 49q169 68 219 198q-41 -19 -83 -19q-75 0 -127.5 51.5t-54.5 143.5q-1 87 49.5 140t127.5 53q91 0 138.5 -67t50.5 -159zM405 365q0 69 -34 118.5t-83 49.5q-47 0 -75.5 -36.5t-27.5 -96.5q2 -60 33 -100.5t77 -40.5
q45 0 102 21q8 40 8 85z" />
    <glyph glyph-name="colon" unicode=":" 
d="M358 336q0 -24 -17 -41t-41 -17t-41 17t-17 41t17 41t41 17t41 -17t17 -41zM358 50q0 -24 -17 -41t-41 -17t-41 17t-17 41t17 41t41 17t41 -17t17 -41z" />
    <glyph glyph-name="semicolon" unicode=";" 
d="M362 49q0 -15 -11 -35l-72 -140l-49 20q37 93 37 111q0 13 -5.5 24t-10.5 15l-5 5q0 22 17.5 40.5t40.5 18.5q24 0 41 -17t17 -42zM362 336q0 -24 -17 -41t-41 -17t-41 17t-17 41t17 41t41 17t41 -17t17 -41z" />
    <glyph glyph-name="less" unicode="&#x3c;" 
d="M474 400l-255 -202l254 -210l-43 -43l-304 254l304 248z" />
    <glyph glyph-name="equal" unicode="=" 
d="M520 255h-440v55h440v-55zM520 89h-440v55h440v-55z" />
    <glyph glyph-name="greater" unicode="&#x3e;" 
d="M474 199l-304 -254l-43 43l254 210l-255 202l44 47z" />
    <glyph glyph-name="question" unicode="?" 
d="M455 452q0 -36 -15 -66.5t-36.5 -52l-43 -42t-36.5 -48t-15 -59.5h-61q0 40 13.5 73.5t32 56t37.5 43t32.5 43t13.5 46.5q0 36 -24.5 60.5t-67.5 24.5q-26 0 -56.5 -10.5t-47.5 -22.5l-36 49q63 43 151 43q67 0 113 -37.5t46 -100.5zM335 50q1 -24 -16 -41t-41 -17
t-41 17t-17 41t16.5 41t40.5 17t41 -17t17 -41z" />
    <glyph glyph-name="at" unicode="@" 
d="M539 301q0 -100 -45 -157t-106 -57q-39 0 -48 47q-28 -45 -63 -45q-95 0 -95 107q0 63 40 107.5t104 44.5q45 0 83 -18l-19 -165q-4 -28 10 -28q31 0 58.5 42.5t27.5 109.5q0 88 -41.5 134t-111.5 46q-89 0 -151.5 -87.5t-62.5 -199.5q0 -93 47 -155.5t126 -62.5
q52 0 108 33l16 -43q-62 -37 -131 -37q-100 0 -162 74t-62 184q0 136 79 239t196 103q88 0 145.5 -58.5t57.5 -157.5zM347 299q-4 3 -23 3q-42 1 -61 -29.5t-19 -75.5q0 -30 9.5 -41.5t28.5 -11.5q29 0 51 46z" />
    <glyph glyph-name="A" unicode="A" 
d="M498 4l-70 -15l-53 197h-161l-56 -197l-64 13l176 575h70zM359 245l-59 249l-70 -249h129z" />
    <glyph glyph-name="B" unicode="B" 
d="M486 164q0 -83 -51.5 -123.5t-133.5 -40.5h-177v577h161q76 0 123 -39.5t47 -105.5q0 -101 -84 -129q37 -7 76 -44t39 -95zM409 163q0 51 -38.5 78t-81.5 27h-91v-211h97q114 0 114 106zM379 429q0 43 -29 66.5t-74 23.5h-78v-193h83q96 0 98 103z" />
    <glyph glyph-name="C" unicode="C" 
d="M492 21q-68 -35 -154 -35q-238 0 -238 307q0 140 68.5 219.5t190.5 79.5q66 0 116 -28l-23 -57q-54 22 -95 22q-74 0 -126.5 -55.5t-52.5 -177.5q0 -133 41 -188.5t122 -55.5q30 0 54 4t37.5 9t40.5 16z" />
    <glyph glyph-name="D" unicode="D" 
d="M487 293q0 -144 -57.5 -218.5t-166.5 -74.5h-156v577h159q117 0 169 -77.5t52 -206.5zM405 295q0 43 -6.5 79t-21 70.5t-45 54.5t-72.5 20h-79v-461h72q82 0 117 55t35 182z" />
    <glyph glyph-name="E" unicode="E" 
d="M486 0h-340v577h315v-59h-241v-190h204v-60h-204v-208h266v-60z" />
    <glyph glyph-name="F" unicode="F" 
d="M483 518h-256v-197h219v-61h-219v-260h-74v577h330v-59z" />
    <glyph glyph-name="G" unicode="G" 
d="M487 22q-22 -12 -70 -24t-92 -12q-111 0 -165.5 73t-54.5 233q0 142 59.5 221t175.5 79q30 0 67 -9t56 -19l-24 -57q-51 22 -99 22q-69 0 -113 -54.5t-44 -177.5q0 -138 33.5 -193.5t110.5 -55.5q46 0 90 11v197h70v-234z" />
    <glyph glyph-name="H" unicode="H" 
d="M490 0h-74v274h-231v-274h-75v577h74v-240h231v240h75v-577z" />
    <glyph glyph-name="I" unicode="I" 
d="M477 0h-362v60h146v459h-146v58h362v-58h-143v-459h143v-60z" />
    <glyph glyph-name="J" unicode="J" 
d="M443 136q0 -67 -48.5 -106t-113.5 -39q-18 0 -51 7.5t-57 14.5l-24 7l17 59q89 -25 112 -25q39 0 65.5 22t26.5 65v378h-175v58h248v-441z" />
    <glyph glyph-name="K" unicode="K" 
d="M505 15l-76 -27l-215 312v19l204 269l72 -25l-197 -252zM201 0h-74v577h74v-577z" />
    <glyph glyph-name="L" unicode="L" 
d="M501 0h-370v577h74v-516h296v-61z" />
    <glyph glyph-name="M" unicode="M" 
d="M497 0l-64 -4l-11 472l-89 -468h-67l-87 468l-14 -472l-62 5l33 576h77l90 -498l93 498h71z" />
    <glyph glyph-name="N" unicode="N" 
d="M490 0h-68l-245 471l1 -471h-68v577h88l225 -437v437h67v-577z" />
    <glyph glyph-name="O" unicode="O" 
d="M489 289q0 -133 -54 -215.5t-135 -82.5q-92 0 -140.5 84t-48.5 214q0 134 54 217.5t135 83.5q91 0 140 -85.5t49 -215.5zM412 273q0 43 -4.5 82t-16 81t-36.5 67t-60 25q-32 0 -54.5 -21.5t-33.5 -57t-15.5 -70.5t-4.5 -72q0 -43 4 -82t15 -80.5t36.5 -66.5t61.5 -25
q32 0 55 21t33.5 56.5t15 70t4.5 72.5z" />
    <glyph glyph-name="P" unicode="P" 
d="M493 419q0 -84 -53 -133.5t-142 -48.5l-85 1v-238h-74v577h164q92 0 141 -41t49 -117zM414 412q0 107 -111 107h-90v-224h80q121 0 121 117z" />
    <glyph glyph-name="Q" unicode="Q" 
d="M537 30l-44 -45l-71 70q-52 -64 -122 -64q-92 0 -140.5 84t-48.5 214q0 134 54 217.5t135 83.5q91 0 140 -85.5t49 -215.5q0 -103 -33 -177zM412 273q0 43 -4.5 82t-16 81t-36.5 67t-60 25q-32 0 -54.5 -21.5t-33.5 -57t-15.5 -70.5t-4.5 -72q0 -43 4 -82t15 -80.5
t36.5 -66.5t61.5 -25q48 0 74 46l-87 87l45 45l66 -66q10 45 10 108z" />
    <glyph glyph-name="R" unicode="R" 
d="M516 10l-75 -23l-147 272q-7 -1 -14 -1h-69v-259h-75v578h149q87 0 134.5 -45t47.5 -112q0 -57 -33.5 -95t-70.5 -52zM390 416q0 45 -26.5 75t-77.5 30h-76v-206h75q49 0 76.5 25.5t28.5 75.5z" />
    <glyph glyph-name="S" unicode="S" 
d="M479 141q0 -74 -50.5 -116.5t-146.5 -42.5q-76 0 -169 48l34 62q78 -44 140 -44q51 0 82 23.5t31 64.5q0 40 -26.5 70.5t-64 52l-75.5 44.5t-64.5 60.5t-26.5 87.5q0 61 47.5 103.5t118.5 42.5q86 0 158 -40l-31 -59q-69 38 -130 38q-33 0 -58 -22.5t-25 -57.5
q0 -34 26.5 -63t64 -51t75 -47t64 -64.5t26.5 -89.5z" />
    <glyph glyph-name="T" unicode="T" 
d="M491 519h-150v-519h-74v519h-158v58h382v-58z" />
    <glyph glyph-name="U" unicode="U" 
d="M491 185q0 -91 -55 -144t-135 -53q-88 0 -140 53t-52 144v392h74v-397q0 -55 30.5 -92.5t86.5 -37.5q57 0 86.5 36.5t29.5 95.5v395h75v-392z" />
    <glyph glyph-name="V" unicode="V" 
d="M500 569l-165 -569h-79l-156 569l78 14l123 -493l123 492z" />
    <glyph glyph-name="W" unicode="W" 
d="M505 574l-79 -574h-74l-58 444l-73 -444h-71l-62 574l69 7l35 -497l71 493h69l60 -496l45 502z" />
    <glyph glyph-name="X" unicode="X" 
d="M495 8l-79 -15l-112 243l-125 -243l-74 16l167 290l-137 266l77 19l99 -222l113 222l71 -20l-151 -263z" />
    <glyph glyph-name="Y" unicode="Y" 
d="M497 566l-163 -343v-223h-74v221l-157 346l77 20l120 -300l127 301z" />
    <glyph glyph-name="Z" unicode="Z" 
d="M486 530l-288 -470h287v-60h-379v48l289 471h-252v58h343v-47z" />
    <glyph glyph-name="bracketleft" unicode="[" 
d="M418 -209h-236v811h236v-50h-170v-711h170v-50z" />
    <glyph glyph-name="backslash" unicode="\" 
d="M505 -135l-52 -25l-358 737l51 24z" />
    <glyph glyph-name="bracketright" unicode="]" 
d="M450 -209h-236v50h170v711h-170v50h236v-811z" />
    <glyph glyph-name="asciicircum" unicode="^" 
d="M520 183l-54 -22l-170 350l-170 -352l-54 24l197 394h55z" />
    <glyph glyph-name="underscore" unicode="_" 
d="M600 -125h-600v50h600v-50z" />
    <glyph glyph-name="grave" unicode="`" 
d="M388 500l-31 -32l-145 123l47 49z" />
    <glyph glyph-name="a" unicode="a" 
d="M459 0h-66v43q-86 -52 -157 -52q-42 0 -72.5 31.5t-30.5 82.5q0 53 43 85t106 34l108 4v44q0 43 -16.5 61t-50.5 18q-68 0 -137 -28l-21 51q83 34 168 34q60 0 93 -36.5t33 -92.5v-279zM390 177l-96 -4q-36 -2 -65.5 -17.5t-29.5 -47.5q0 -61 60 -61q22 0 65 16t65 28z
" />
    <glyph glyph-name="b" unicode="b" 
d="M491 220q0 -100 -64 -165t-154 -65q-54 0 -152 32v555h67v-204q6 2 21.5 8.5l24.5 10t24 8t30 6.5t31 2q74 0 123 -54.5t49 -133.5zM419 205q1 64 -29.5 104.5t-90.5 40.5q-20 0 -111 -34v-250q56 -20 85 -20q56 0 101 50t45 109z" />
    <glyph glyph-name="c" unicode="c" 
d="M485 40q-79 -49 -163 -49q-87 0 -141 58t-54 142q0 95 55 156.5t139 61.5q63 0 136 -40l-26 -49q-66 33 -110 33q-54 0 -89 -43t-35 -112q0 -65 35 -107.5t97 -42.5q57 0 131 39z" />
    <glyph glyph-name="d" unicode="d" 
d="M481 0h-66v46q-66 -51 -133 -51q-76 0 -123.5 56t-47.5 145q0 88 53 150t140 62q54 0 108 -22v191h69v-577zM412 104v223q-61 26 -112 26q-57 0 -88 -43t-31 -108q0 -149 114 -149q49 0 117 51z" />
    <glyph glyph-name="e" unicode="e" 
d="M493 41q-27 -19 -76 -35t-102 -16q-88 0 -142 54.5t-54 145.5q0 93 49.5 155.5t129.5 62.5q83 0 126 -42.5t62 -120.5l-30 -38l-263 -39q12 -116 129 -116q73 0 142 40zM407 257q-22 95 -106 95q-47 0 -80 -38.5t-33 -95.5z" />
    <glyph glyph-name="f" unicode="f" 
d="M499 556l-21 -55q-70 30 -121 30q-75 0 -75 -97v-40h195v-57h-194v-337h-69v337h-101v57h100v43q0 76 39 114.5t99 38.5q58 0 148 -34z" />
    <glyph glyph-name="g" unicode="g" 
d="M478 -66q0 -78 -59 -118.5t-147 -40.5q-63 0 -110.5 35.5t-47.5 92.5q0 50 30 77.5t88 48.5l-71 20v56l89 38q-40 12 -70.5 43.5t-30.5 83.5q0 63 47 100.5t106 37.5q40 0 64 -14h109v-55h-51q11 -9 19.5 -31.5t8.5 -38.5q0 -57 -30.5 -88.5t-85.5 -52.5l-102 -38
l134 -39q48 -14 79 -44t31 -73zM406 -80q0 15 -6.5 27t-14 19.5t-23 15t-24 10.5t-27 8.5t-23.5 6.5q-106 -41 -106 -99q0 -34 26.5 -57t68.5 -23q56 0 92.5 26.5t36.5 65.5zM384 270q0 39 -23.5 62t-59.5 23q-37 0 -60 -23.5t-23 -62.5q1 -39 25 -62t60 -23q33 0 57 24
t24 62z" />
    <glyph glyph-name="h" unicode="h" 
d="M475 0h-69v262q0 43 -19.5 64.5t-52.5 21.5q-12 0 -33 -9.5t-38 -19.5l-40.5 -24.5l-28.5 -17.5v-277h-69v577h66v-243l18.5 12l21 13.5t20 12t22 12l21 9.5t23 9t21.5 5t23 2q48 0 81 -36t33 -98v-275z" />
    <glyph glyph-name="i" unicode="i" 
d="M478 0h-216v337h-148v57h216v-334h148v-60zM348 562q0 -22 -15 -37t-37 -15t-37 15t-15 37q0 21 15 36.5t37 15.5t37 -15.5t15 -36.5z" />
    <glyph glyph-name="j" unicode="j" 
d="M425 -87q0 -63 -38 -100.5t-84 -37.5q-44 0 -96.5 13t-69.5 21l14 57q81 -32 133 -32q34 0 53.5 19.5t19.5 54.5v429h-159v57h227v-481zM443 562q0 -22 -15 -37t-37 -15t-37 15t-15 37q0 21 15 36.5t37 15.5t37 -15.5t15 -36.5z" />
    <glyph glyph-name="k" unicode="k" 
d="M219 0h-69v577h69v-577zM502 20l-57 -34l-211 205v30l189 188l59 -31l-176 -163z" />
    <glyph glyph-name="l" unicode="l" 
d="M482 0h-216v519h-148v58h216v-517h148v-60z" />
    <glyph glyph-name="m" unicode="m" 
d="M490 0h-66v276q0 41 -7.5 56t-28.5 15q-9 0 -23 -13.5t-23 -27.5l-9 -14q1 -12 1 -16v-276h-66v276q0 71 -34 71q-13 0 -33 -22t-26 -36v-289h-65v394h62v-50q45 64 79 64q57 0 73 -64q36 64 79 64q47 0 67 -31.5t20 -93.5v-283z" />
    <glyph glyph-name="n" unicode="n" 
d="M475 0h-69v262q0 43 -19.5 64.5t-52.5 21.5q-12 0 -33 -9.5t-38 -19.5l-40.5 -24.5l-28.5 -17.5v-277h-69v394h66v-60l24.5 16.5l27 18t25.5 15t29.5 14t29.5 8t34 3.5q48 0 81 -36t33 -98v-275z" />
    <glyph glyph-name="o" unicode="o" 
d="M487 201q0 -87 -53 -149t-139 -62t-138 59.5t-52 148.5q0 86 53 148.5t137 62.5q85 0 138.5 -61t53.5 -147zM414 201q0 63 -32.5 107.5t-88.5 44.5q-55 0 -85 -43.5t-30 -111.5q0 -66 31.5 -109.5t88.5 -43.5q56 0 86 45t30 111z" />
    <glyph glyph-name="p" unicode="p" 
d="M490 220q0 -100 -64 -165t-154 -65q-44 0 -94 13v-212h-68v603h67v-31q1 1 20 10t28 12.5l27 10.5t34 9.5t32 2.5q73 0 122.5 -54.5t49.5 -133.5zM418 205q1 63 -30.5 104t-89.5 41q-37 0 -121 -44v-240q56 -20 95 -20q56 0 101 50t45 109z" />
    <glyph glyph-name="q" unicode="q" 
d="M490 -211h-66v252q-26 -20 -66 -32.5t-77 -12.5q-79 0 -125 55t-46 145q0 88 53 150t140 62q92 0 187 -41v-578zM421 99v229q-66 25 -122 25q-57 0 -88 -43t-31 -108q0 -149 115 -149q24 0 66.5 16t59.5 30z" />
    <glyph glyph-name="r" unicode="r" 
d="M485 255h-68v86q-12 6 -30 6q-10 0 -24 -4.5t-25 -9.5t-27.5 -15t-24 -15t-22.5 -16t-16 -11v-276h-69v394h68v-62q92 77 154 77q50 0 84 -14v-140z" />
    <glyph glyph-name="s" unicode="s" 
d="M450 108q0 -51 -41.5 -84t-114.5 -33t-152 36l32 55q66 -33 118 -33q33 0 60 12.5t27 38.5q0 24 -22 42t-53.5 31.5t-63 28.5t-53.5 40.5t-22 60.5q0 51 42.5 78.5t100.5 27.5q62 0 136 -30l-30 -53q-57 27 -108 27q-28 0 -50.5 -12t-22.5 -35q0 -24 34 -44.5t74.5 -35
t74.5 -45t34 -73.5z" />
    <glyph glyph-name="t" unicode="t" 
d="M485 53q-1 -1 -11.5 -7l-15 -8.5l-16 -9t-19.5 -9.5t-20.5 -8.5t-23.5 -8.5t-24 -6t-26.5 -4.5t-26.5 -1.5q-44 0 -76.5 32.5t-32.5 86.5v228h-78v25l147 129v-97h187v-57h-187v-205q0 -45 14.5 -64t48.5 -19q42 0 142 54z" />
    <glyph glyph-name="u" unicode="u" 
d="M469 0h-66v50q-2 -1 -14 -8.5t-15 -9.5t-14.5 -8.5l-16 -9t-15.5 -7.5t-17.5 -7l-17 -5.5t-19 -5t-19 -2.5t-21.5 -1q-50 0 -76.5 34.5t-26.5 99.5v274h69v-261q0 -45 14.5 -65.5t46.5 -20.5q21 0 66.5 21.5t72.5 39.5v286h69v-394z" />
    <glyph glyph-name="v" unicode="v" 
d="M496 390l-172 -390h-67l-153 387l70 22l122 -336l135 336z" />
    <glyph glyph-name="w" unicode="w" 
d="M505 393l-67 -393h-87l-51 325l-60 -325h-87l-59 395l65 4l40 -352l65 347h80l54 -347l45 352z" />
    <glyph glyph-name="x" unicode="x" 
d="M481 384l-136 -179l134 -189l-69 -27l-109 166l-121 -166l-61 26l145 186l-127 179l67 30l103 -165l116 164z" />
    <glyph glyph-name="y" unicode="y" 
d="M486 388l-195 -453q-65 -151 -156 -160l-15 58q35 7 68 42t55 101l14 43l-151 369l71 21l119 -319l127 319z" />
    <glyph glyph-name="z" unicode="z" 
d="M466 0h-340v40l241 297h-238v57h329v-43l-235 -291h243v-60z" />
    <glyph glyph-name="braceleft" unicode="{" 
d="M431 -169l-14 -46q-8 0 -21 1.5t-45.5 12t-57 27t-43 52t-15.5 83.5l8 121q2 26 -23.5 52.5t-58.5 26.5v61q33 0 59 26t24 53l-8 124q-3 43 13.5 76t42 50t51.5 27.5t45 13.5l18 3l17 -48q-5 -1 -13.5 -3t-29.5 -10t-37 -18.5t-28 -30t-11 -43.5l8 -127q3 -48 -25 -80.5
t-67 -42.5q37 -7 66.5 -42.5t26.5 -81.5l-8 -127q-2 -34 29.5 -61.5t63.5 -37.5z" />
    <glyph glyph-name="bar" unicode="|" 
d="M332 -211h-72v788h72v-788z" />
    <glyph glyph-name="braceright" unicode="}" 
d="M431 161q-33 0 -59 -26.5t-24 -52.5l8 -121q3 -48 -14.5 -83.5t-44.5 -52.5t-54.5 -27t-46.5 -12l-20 -1l-15 46q5 1 14 4t31.5 13t39.5 21.5t30 31t12 40.5l-8 127q-3 47 26 82t66 42q-39 10 -67.5 42.5t-25.5 80.5l8 127q2 38 -27.5 64t-59.5 34l-31 7l16 48
q7 -1 19.5 -3t43 -13.5t54 -28t41 -49.5t14.5 -76l-8 -124q-2 -27 23.5 -53t58.5 -26v-61z" />
    <glyph glyph-name="asciitilde" unicode="~" 
d="M545 256q-37 -50 -57 -65q-36 -27 -86 -27q-39 0 -110 34t-107 34q-45 0 -85 -69l-45 40q1 2 11 16t12.5 17l12 15t15 16t15.5 12t19 10.5t21 5.5t25 3q39 0 114 -34t110 -34q16 0 28.5 5t24.5 17.5t17 19.5l18 26z" />
    <glyph glyph-name="nbspace" unicode="&#xa0;" 
 />
    <glyph glyph-name="exclamdown" unicode="&#xa1;" 
d="M338 0h-82v194q0 26 5 75.5t10 86.5l5 36h42q20 -139 20 -198v-194zM354 526q0 -24 -17 -41t-41 -17t-41 17t-17 41t17 41t41 17t41 -17t17 -41z" />
    <glyph glyph-name="cent" unicode="&#xa2;" 
d="M459 30q-54 -34 -109 -39l2 -87h-59l2 88q-75 10 -118.5 66t-43.5 133q0 89 44 148.5t117 67.5l-1 87h59l-2 -88q44 -6 92 -33l-27 -47q-54 27 -99 27q-53 0 -83 -42t-30 -113q0 -65 33.5 -108t94.5 -43q32 0 52.5 7t51.5 23z" />
    <glyph glyph-name="sterling" unicode="&#xa3;" 
d="M527 138q-3 -20 -11 -41t-23.5 -44.5t-45 -38t-68.5 -14.5h-251v58h64v212h-66v58h65v91q0 78 46 125.5t117 47.5q56 0 96 -22l-23 -60q-37 20 -71 20q-44 0 -69.5 -31t-25.5 -76v-95h134v-58h-134v-212h123q34 0 59 26.5t32 63.5z" />
    <glyph glyph-name="currency" unicode="&#xa4;" 
d="M499 21q-68 -35 -154 -35q-245 0 -245 307q0 139 71.5 219t194.5 80q66 0 116 -28l-23 -57q-54 22 -95 22q-60 0 -110.5 -37t-67.5 -118h259v-50h-266q-1 -9 -1 -28v-26h267v-50h-262q11 -90 53.5 -129t111.5 -39q30 0 54 4t37.5 9t40.5 16z" />
    <glyph glyph-name="yen" unicode="&#xa5;" 
d="M493 566l-117 -245h112v-51h-136l-23 -47v-6h159v-51h-158v-166h-74v166h-152v51h152v4l-23 49h-129v51h106l-111 246l77 20l120 -300l127 301z" />
    <glyph glyph-name="brokenbar" unicode="&#xa6;" 
d="M336 -211h-72v339h72v-339zM336 312h-72v265h72v-265z" />
    <glyph glyph-name="section" unicode="&#xa7;" 
d="M445 162q0 -34 -25 -56l-211 234q-37 41 -37 94q0 68 60 123q13 12 42.5 28.5t51.5 26.5l23 11l27 -55q-83 -41 -100 -57q-34 -29 -34 -68q0 -30 24 -57l164 -182q15 -17 15 -42zM410 -17q0 -71 -60 -124q-13 -12 -42.5 -28.5t-51.5 -26.5l-23 -11l-26 55q82 41 99 57
q34 29 34 68q0 30 -24 57l-147 164q-18 19 -18 43q0 30 28 55l194 -217q37 -41 37 -92z" />
    <glyph glyph-name="dieresis" unicode="&#xa8;" 
d="M421 563q0 -19 -13.5 -32.5t-32.5 -13.5q-18 0 -31.5 13.5t-13.5 32.5t13.5 32t31.5 13q19 0 32.5 -13t13.5 -32zM270 563q0 -19 -13.5 -32.5t-31.5 -13.5q-19 0 -32.5 13.5t-13.5 32.5t13.5 32t32.5 13q18 0 31.5 -13t13.5 -32z" />
    <glyph glyph-name="copyright" unicode="&#xa9;" 
d="M551 286q0 -121 -70 -202t-185 -81q-118 0 -182.5 79.5t-64.5 207.5q0 122 69.5 204.5t184.5 82.5q114 0 181 -83.5t67 -207.5zM491 290q0 98 -51.5 165.5t-139.5 67.5t-139.5 -66.5t-51.5 -164.5q0 -99 51.5 -168t139.5 -69t139.5 68t51.5 167zM402 144q-46 -22 -93 -22
q-136 0 -136 167q0 76 39 119t109 43q38 0 72 -18l-18 -42q-34 13 -55 13q-37 0 -63.5 -26.5t-26.5 -86.5q0 -67 20.5 -93.5t60.5 -26.5q32 0 76 18z" />
    <glyph glyph-name="ordfeminine" unicode="&#xaa;" 
d="M402 292h-53v24q-49 -29 -86 -29q-30 0 -51.5 21t-21.5 56q0 36 30.5 57.5t72.5 23.5l54 2v22q0 27 -9.5 37.5t-29.5 10.5q-31 0 -81 -19l-17 40q59 25 104 25q42 0 65 -25t23 -63v-183zM347 405l-25 -1q-78 -2 -78 -38q0 -34 34 -34q19 0 68 26z" />
    <glyph glyph-name="guillemotleft" unicode="&#xab;" 
d="M442 88l-44 -29l-104 155l103 155l45 -28l-86 -127zM306 341l-86 -127l85 -126l-43 -29l-104 155l103 155z" />
    <glyph glyph-name="logicalnot" unicode="&#xac;" 
d="M499 89h-56v83h-343v54h399v-137z" />
    <glyph glyph-name="registered" unicode="&#xae;" 
d="M510 513q0 -86 -63 -146.5t-151 -60.5t-151 60.5t-63 146.5q0 85 62.5 145.5t151.5 60.5t151.5 -60.5t62.5 -145.5zM462 513q1 68 -47.5 116.5t-118.5 48.5q-69 0 -118 -48.5t-49 -116.5t49 -116.5t118 -48.5t117.5 48.5t48.5 116.5zM403 403l-49 -17l-64 111h-11v-104
h-52v247h65q41 0 64 -20.5t23 -50.5q0 -38 -42 -63zM326 567q0 35 -34 35h-14v-68h14q32 0 34 33z" />
    <glyph glyph-name="macron" unicode="&#xaf;" 
d="M408 533h-216v51h216v-51z" />
    <glyph glyph-name="degree" unicode="&#xb0;" 
d="M425 461q0 -57 -39 -94.5t-91 -37.5q-55 0 -91 37.5t-36 90.5q-1 56 37 94.5t92 38.5q55 0 91.5 -36.5t36.5 -92.5zM375 459q0 36 -21.5 61t-57.5 25q-34 0 -55 -26t-21 -62q0 -35 22 -59.5t55 -24.5t55.5 25t22.5 61z" />
    <glyph glyph-name="plusminus" unicode="&#xb1;" 
d="M480 232h-151v-152h-57v152h-152v54h151v150h57v-150h152v-54zM480 -26h-360v54h360v-54z" />
    <glyph glyph-name="twosuperior" unicode="&#xb2;" 
d="M415 484q0 -26 -16.5 -55t-29 -42.5t-41.5 -42.5l-55 -56h138v-52h-226v38q104 110 135 152q29 40 29 56q0 20 -14 32.5t-38 12.5q-34 0 -76 -27l-29 46q52 37 103 37q47 0 83.5 -26.5t36.5 -72.5z" />
    <glyph glyph-name="threesuperior" unicode="&#xb3;" 
d="M406 340q0 -44 -34 -74t-90 -30q-50 0 -88 25l25 45q33 -20 62 -20q31 0 46 15.5t15 39.5q-1 28 -20.5 43.5t-50.5 15.5h-24v46h23q23 0 42 13t19 35q0 39 -45 39q-15 0 -55 -20l-24 42q42 28 88 28t73 -24t27 -59q0 -48 -43 -74q54 -26 54 -86z" />
    <glyph glyph-name="acute" unicode="&#xb4;" 
d="M388 591l-145 -123l-31 32l129 140z" />
    <glyph glyph-name="mu" unicode="&#xb5;" 
d="M464 0h-66v50q-3 -2 -23 -14.5l-25.5 -16t-22.5 -12.5t-27 -12t-25.5 -6t-29.5 -3q-21 0 -40 8v-205h-68v605h67v-261q0 -86 70 -86q30 0 121 61v286h69v-394z" />
    <glyph glyph-name="paragraph" unicode="&#xb6;" 
d="M337 191q-118 0 -171 41t-53 157q0 205 224 205v-403zM479 -211h-74v805h74v-805z" />
    <glyph glyph-name="periodcentered" unicode="&#xb7;" 
d="M354 230q0 -24 -17 -41t-41 -17t-41 17t-17 41q0 23 17 40t41 17t41 -17t17 -40z" />
    <glyph glyph-name="cedilla" unicode="&#xb8;" 
d="M383 -127q0 -34 -29 -53.5t-70 -19.5q-33 0 -67 18v36q40 -20 68 -20q18 0 32.5 10.5t14.5 31.5q0 37 -76 52l39 75h52l-32 -53q28 -8 48 -27.5t20 -49.5z" />
    <glyph glyph-name="onesuperior" unicode="&#xb9;" 
d="M389 236h-173v51h56v238h-61v51h122v-289h56v-51z" />
    <glyph glyph-name="ordmasculine" unicode="&#xba;" 
d="M429 426q0 -57 -38.5 -99t-95.5 -42t-94.5 40.5t-37.5 98.5q0 56 38 98.5t94 42.5t95 -42.5t39 -96.5zM370 428q-2 38 -24 65t-54 26q-34 -1 -52.5 -29t-17.5 -66q1 -39 21.5 -67t55.5 -27q32 1 52.5 29.5t18.5 68.5z" />
    <glyph glyph-name="guillemotright" unicode="&#xbb;" 
d="M442 214l-102 -155l-46 29l86 126l-85 126l44 29zM305 214l-101 -155l-46 29l86 126l-85 126l44 29z" />
    <glyph glyph-name="onequarter" unicode="&#xbc;" 
d="M578 85h-43v-85h-63v85h-130v36l135 220h58v-205h43v-51zM429 568l-221 -579l-48 14l220 580zM197 236h-173v51h56v238h-61v51h122v-289h56v-51zM472 136v110l-62 -110h62z" />
    <glyph glyph-name="onehalf" unicode="&#xbd;" 
d="M581 248q0 -12 -2.5 -23t-9 -23l-11 -20t-15.5 -21l-15.5 -18t-17.5 -18.5l-16 -16.5l-54 -56h137v-52h-225v38q104 110 135 152q28 38 28 56q0 20 -14 32.5t-38 12.5q-34 0 -76 -27l-28 46q52 37 103 37q47 0 83 -26.5t36 -72.5zM429 568l-221 -579l-48 14l220 580z
M197 236h-173v51h56v238h-61v51h122v-289h56v-51z" />
    <glyph glyph-name="threequarters" unicode="&#xbe;" 
d="M578 85h-43v-85h-63v85h-130v36l135 220h58v-205h43v-51zM223 340q0 -44 -34 -74t-90 -30q-51 0 -88 25l25 45q33 -20 62 -20q31 0 46 15.5t15 39.5q-1 28 -20.5 43.5t-50.5 15.5h-24v46h23q23 0 42 13t19 35q0 39 -45 39q-15 0 -55 -20l-24 42q42 28 88 28t73 -24
t27 -59q0 -48 -43 -74q54 -26 54 -86zM429 568l-221 -579l-48 14l220 580zM472 136v110l-62 -110h62z" />
    <glyph glyph-name="questiondown" unicode="&#xbf;" 
d="M145 130q0 36 15 66.5t36.5 52l43 42t36.5 48t15 59.5h61q0 -40 -13.5 -73.5t-32 -56t-37.5 -43t-32.5 -43t-13.5 -46.5q0 -36 24.5 -60.5t67.5 -24.5q26 0 56.5 10.5t47.5 22.5l36 -49q-63 -43 -151 -43q-67 0 -113 37.5t-46 100.5zM265 532q-1 24 16 41t41 17t41 -17
t17 -41t-16.5 -41t-40.5 -17t-41 17t-17 41z" />
    <glyph glyph-name="Agrave" unicode="&#xc0;" 
d="M498 4l-70 -15l-53 197h-161l-56 -197l-64 13l176 575h70zM359 245l-59 249l-70 -249h129zM368 650l-31 -32l-145 123l47 49z" />
    <glyph glyph-name="Aacute" unicode="&#xc1;" 
d="M498 4l-70 -15l-53 197h-161l-56 -197l-64 13l176 575h70zM359 245l-59 249l-70 -249h129zM408 741l-145 -123l-31 32l129 140z" />
    <glyph glyph-name="Acircumflex" unicode="&#xc2;" 
d="M498 4l-70 -15l-53 197h-161l-56 -197l-64 13l176 575h70zM450 673l-34 -49l-116 87l-116 -87l-34 49l150 106zM359 245l-59 249l-70 -249h129z" />
    <glyph glyph-name="Atilde" unicode="&#xc3;" 
d="M498 4l-70 -15l-53 197h-161l-56 -197l-64 13l176 575h70zM438 744q-5 -38 -28 -63.5t-53 -25.5q-24 0 -60.5 22t-49.5 22q-15 0 -30 -11.5t-17 -32.5l-38 12q4 40 27 66.5t52 26.5q24 0 60.5 -22.5t51.5 -22.5t28.5 10t16.5 29zM359 245l-59 249l-70 -249h129z" />
    <glyph glyph-name="Adieresis" unicode="&#xc4;" 
d="M498 4l-70 -15l-53 197h-161l-56 -197l-64 13l176 575h70zM359 245l-59 249l-70 -249h129zM421 713q0 -19 -13.5 -32.5t-32.5 -13.5q-18 0 -31.5 13.5t-13.5 32.5t13.5 32t31.5 13q19 0 32.5 -13t13.5 -32zM270 713q0 -19 -13.5 -32.5t-31.5 -13.5q-19 0 -32.5 13.5
t-13.5 32.5t13.5 32t32.5 13q18 0 31.5 -13t13.5 -32z" />
    <glyph glyph-name="Aring" unicode="&#xc5;" 
d="M498 4l-70 -15l-53 197h-161l-56 -197l-64 13l176 575h70zM397 709q0 -38 -27.5 -63.5t-68.5 -25.5q-43 0 -70.5 25.5t-27.5 63.5q0 39 26.5 65.5t71.5 26.5h1q43 0 69 -26t26 -66zM359 245l-59 249l-70 -249h129zM351 710q0 23 -13.5 38.5t-36.5 15.5h-1q-22 0 -35 -16
t-13 -39q0 -21 13.5 -37t34.5 -16q23 0 37 15.5t14 38.5z" />
    <glyph glyph-name="AE" unicode="&#xc6;" 
d="M505 0h-190v196h-87l-72 -207l-69 11l227 577h167v-59h-93v-193h85v-57h-85v-210h117v-58zM315 253v196l-69 -196h69z" />
    <glyph glyph-name="Ccedilla" unicode="&#xc7;" 
d="M492 21q-65 -32 -144 -35l-22 -36q28 -8 48 -27.5t20 -49.5q0 -34 -29 -53.5t-70 -19.5q-33 0 -67 18v36q40 -20 68 -20q18 0 32.5 10.5t14.5 31.5q0 37 -76 52l31 60q-198 24 -198 305q0 140 68.5 219.5t190.5 79.5q66 0 116 -28l-23 -57q-54 22 -95 22
q-74 0 -126.5 -55.5t-52.5 -177.5q0 -133 41 -188.5t122 -55.5q30 0 54 4t37.5 9t40.5 16z" />
    <glyph glyph-name="Egrave" unicode="&#xc8;" 
d="M486 0h-340v577h315v-59h-241v-190h204v-60h-204v-208h266v-60zM388 650l-31 -32l-145 123l47 49z" />
    <glyph glyph-name="Eacute" unicode="&#xc9;" 
d="M486 0h-340v577h315v-59h-241v-190h204v-60h-204v-208h266v-60zM388 741l-145 -123l-31 32l129 140z" />
    <glyph glyph-name="Ecircumflex" unicode="&#xca;" 
d="M486 0h-340v577h315v-59h-241v-190h204v-60h-204v-208h266v-60zM450 673l-34 -49l-116 87l-116 -87l-34 49l150 106z" />
    <glyph glyph-name="Edieresis" unicode="&#xcb;" 
d="M486 0h-340v577h315v-59h-241v-190h204v-60h-204v-208h266v-60zM421 713q0 -19 -13.5 -32.5t-32.5 -13.5q-18 0 -31.5 13.5t-13.5 32.5t13.5 32t31.5 13q19 0 32.5 -13t13.5 -32zM270 713q0 -19 -13.5 -32.5t-31.5 -13.5q-19 0 -32.5 13.5t-13.5 32.5t13.5 32t32.5 13
q18 0 31.5 -13t13.5 -32z" />
    <glyph glyph-name="Igrave" unicode="&#xcc;" 
d="M477 0h-362v60h146v459h-146v58h362v-58h-143v-459h143v-60zM388 650l-31 -32l-145 123l47 49z" />
    <glyph glyph-name="Iacute" unicode="&#xcd;" 
d="M477 0h-362v60h146v459h-146v58h362v-58h-143v-459h143v-60zM388 741l-145 -123l-31 32l129 140z" />
    <glyph glyph-name="Icircumflex" unicode="&#xce;" 
d="M477 0h-362v60h146v459h-146v58h362v-58h-143v-459h143v-60zM450 673l-34 -49l-116 87l-116 -87l-34 49l150 106z" />
    <glyph glyph-name="Idieresis" unicode="&#xcf;" 
d="M477 0h-362v60h146v459h-146v58h362v-58h-143v-459h143v-60zM421 713q0 -19 -13.5 -32.5t-32.5 -13.5q-18 0 -31.5 13.5t-13.5 32.5t13.5 32t31.5 13q19 0 32.5 -13t13.5 -32zM270 713q0 -19 -13.5 -32.5t-31.5 -13.5q-19 0 -32.5 13.5t-13.5 32.5t13.5 32t32.5 13
q18 0 31.5 -13t13.5 -32z" />
    <glyph glyph-name="Eth" unicode="&#xd0;" 
d="M487 293q0 -144 -57.5 -218.5t-166.5 -74.5h-156v291h-64v58h64v228h159q117 0 169 -77.5t52 -206.5zM405 295q0 43 -6.5 79t-21 70.5t-45 54.5t-72.5 20h-79v-170h114v-58h-114v-233h72q82 0 117 55t35 182z" />
    <glyph glyph-name="Ntilde" unicode="&#xd1;" 
d="M490 0h-68l-245 471l1 -471h-68v577h88l225 -437v437h67v-577zM438 744q-5 -38 -28 -63.5t-53 -25.5q-24 0 -60.5 22t-49.5 22q-15 0 -30 -11.5t-17 -32.5l-38 12q4 40 27 66.5t52 26.5q24 0 60.5 -22.5t51.5 -22.5t28.5 10t16.5 29z" />
    <glyph glyph-name="Ograve" unicode="&#xd2;" 
d="M489 289q0 -133 -54 -215.5t-135 -82.5q-92 0 -140.5 84t-48.5 214q0 134 54 217.5t135 83.5q91 0 140 -85.5t49 -215.5zM412 273q0 43 -4.5 82t-16 81t-36.5 67t-60 25q-32 0 -54.5 -21.5t-33.5 -57t-15.5 -70.5t-4.5 -72q0 -43 4 -82t15 -80.5t36.5 -66.5t61.5 -25
q32 0 55 21t33.5 56.5t15 70t4.5 72.5zM388 650l-31 -32l-145 123l47 49z" />
    <glyph glyph-name="Oacute" unicode="&#xd3;" 
d="M489 289q0 -133 -54 -215.5t-135 -82.5q-92 0 -140.5 84t-48.5 214q0 134 54 217.5t135 83.5q91 0 140 -85.5t49 -215.5zM412 273q0 43 -4.5 82t-16 81t-36.5 67t-60 25q-32 0 -54.5 -21.5t-33.5 -57t-15.5 -70.5t-4.5 -72q0 -43 4 -82t15 -80.5t36.5 -66.5t61.5 -25
q32 0 55 21t33.5 56.5t15 70t4.5 72.5zM388 741l-145 -123l-31 32l129 140z" />
    <glyph glyph-name="Ocircumflex" unicode="&#xd4;" 
d="M489 289q0 -133 -54 -215.5t-135 -82.5q-92 0 -140.5 84t-48.5 214q0 134 54 217.5t135 83.5q91 0 140 -85.5t49 -215.5zM412 273q0 43 -4.5 82t-16 81t-36.5 67t-60 25q-32 0 -54.5 -21.5t-33.5 -57t-15.5 -70.5t-4.5 -72q0 -43 4 -82t15 -80.5t36.5 -66.5t61.5 -25
q32 0 55 21t33.5 56.5t15 70t4.5 72.5zM450 673l-34 -49l-116 87l-116 -87l-34 49l150 106z" />
    <glyph glyph-name="Otilde" unicode="&#xd5;" 
d="M489 289q0 -133 -54 -215.5t-135 -82.5q-92 0 -140.5 84t-48.5 214q0 134 54 217.5t135 83.5q91 0 140 -85.5t49 -215.5zM412 273q0 43 -4.5 82t-16 81t-36.5 67t-60 25q-32 0 -54.5 -21.5t-33.5 -57t-15.5 -70.5t-4.5 -72q0 -43 4 -82t15 -80.5t36.5 -66.5t61.5 -25
q32 0 55 21t33.5 56.5t15 70t4.5 72.5zM438 744q-5 -38 -28 -63.5t-53 -25.5q-24 0 -60.5 22t-49.5 22q-15 0 -30 -11.5t-17 -32.5l-38 12q4 40 27 66.5t52 26.5q24 0 60.5 -22.5t51.5 -22.5t28.5 10t16.5 29z" />
    <glyph glyph-name="Odieresis" unicode="&#xd6;" 
d="M489 289q0 -133 -54 -215.5t-135 -82.5q-92 0 -140.5 84t-48.5 214q0 134 54 217.5t135 83.5q91 0 140 -85.5t49 -215.5zM412 273q0 43 -4.5 82t-16 81t-36.5 67t-60 25q-32 0 -54.5 -21.5t-33.5 -57t-15.5 -70.5t-4.5 -72q0 -43 4 -82t15 -80.5t36.5 -66.5t61.5 -25
q32 0 55 21t33.5 56.5t15 70t4.5 72.5zM421 713q0 -19 -13.5 -32.5t-32.5 -13.5q-18 0 -31.5 13.5t-13.5 32.5t13.5 32t31.5 13q19 0 32.5 -13t13.5 -32zM270 713q0 -19 -13.5 -32.5t-31.5 -13.5q-19 0 -32.5 13.5t-13.5 32.5t13.5 32t32.5 13q18 0 31.5 -13t13.5 -32z" />
    <glyph glyph-name="multiply" unicode="&#xd7;" 
d="M475 63l-41 -40l-135 135l-135 -135l-38 39l135 135l-136 135l41 40l135 -135l135 135l38 -38l-135 -135z" />
    <glyph glyph-name="Oslash" unicode="&#xd8;" 
d="M485 289q0 -133 -54 -215.5t-135 -82.5q-35 0 -66 14l-9 -27l-54 19l15 43q-75 79 -75 249q0 134 54 217.5t135 83.5q35 0 69 -16l7 21l55 -18l-14 -40q72 -83 72 -248zM343 510q-23 18 -52 18q-32 0 -54.5 -21.5t-33.5 -57t-15.5 -70.5t-4.5 -72q0 -121 27 -184z
M408 273q0 110 -25 176l-131 -382q20 -14 48 -14q32 0 55 21t33.5 56.5t15 70t4.5 72.5z" />
    <glyph glyph-name="Ugrave" unicode="&#xd9;" 
d="M491 185q0 -91 -55 -144t-135 -53q-88 0 -140 53t-52 144v392h74v-397q0 -55 30.5 -92.5t86.5 -37.5q57 0 86.5 36.5t29.5 95.5v395h75v-392zM388 650l-31 -32l-145 123l47 49z" />
    <glyph glyph-name="Uacute" unicode="&#xda;" 
d="M491 185q0 -91 -55 -144t-135 -53q-88 0 -140 53t-52 144v392h74v-397q0 -55 30.5 -92.5t86.5 -37.5q57 0 86.5 36.5t29.5 95.5v395h75v-392zM388 741l-145 -123l-31 32l129 140z" />
    <glyph glyph-name="Ucircumflex" unicode="&#xdb;" 
d="M491 185q0 -91 -55 -144t-135 -53q-88 0 -140 53t-52 144v392h74v-397q0 -55 30.5 -92.5t86.5 -37.5q57 0 86.5 36.5t29.5 95.5v395h75v-392zM450 673l-34 -49l-116 87l-116 -87l-34 49l150 106z" />
    <glyph glyph-name="Udieresis" unicode="&#xdc;" 
d="M491 185q0 -91 -55 -144t-135 -53q-88 0 -140 53t-52 144v392h74v-397q0 -55 30.5 -92.5t86.5 -37.5q57 0 86.5 36.5t29.5 95.5v395h75v-392zM421 713q0 -19 -13.5 -32.5t-32.5 -13.5q-18 0 -31.5 13.5t-13.5 32.5t13.5 32t31.5 13q19 0 32.5 -13t13.5 -32zM270 713
q0 -19 -13.5 -32.5t-31.5 -13.5q-19 0 -32.5 13.5t-13.5 32.5t13.5 32t32.5 13q18 0 31.5 -13t13.5 -32z" />
    <glyph glyph-name="Yacute" unicode="&#xdd;" 
d="M497 566l-163 -343v-223h-74v221l-157 346l77 20l120 -300l127 301zM398 741l-145 -123l-31 32l129 140z" />
    <glyph glyph-name="Thorn" unicode="&#xde;" 
d="M493 308q0 -84 -53 -133.5t-142 -48.5l-85 1v-127h-74v577h74v-111h90q92 0 141 -41t49 -117zM414 301q0 107 -111 107h-90v-224h80q121 0 121 117z" />
    <glyph glyph-name="germandbls" unicode="&#xdf;" 
d="M482 109q0 -54 -36 -86t-100 -32q-68 0 -128 34l26 53q19 -13 49 -22.5t53 -9.5q26 0 46 14t20 37q0 28 -27.5 49.5t-61 35.5t-61 43t-27.5 70q0 29 18.5 49.5t40.5 30.5t40.5 28.5t18.5 44.5q0 44 -23.5 67.5t-59.5 23.5q-92 0 -92 -113v-426h-68v421q0 78 43 125.5
t114 47.5q65 0 112 -38.5t47 -109.5q0 -36 -19 -60t-42.5 -33t-42.5 -22t-19 -29q0 -20 18.5 -35.5t44.5 -28.5t52.5 -28t45 -41t18.5 -60z" />
    <glyph glyph-name="agrave" unicode="&#xe0;" 
d="M459 0h-66v43q-86 -52 -157 -52q-42 0 -72.5 31.5t-30.5 82.5q0 53 43 85t106 34l108 4v44q0 43 -16.5 61t-50.5 18q-68 0 -137 -28l-21 51q83 34 168 34q60 0 93 -36.5t33 -92.5v-279zM390 177l-96 -4q-36 -2 -65.5 -17.5t-29.5 -47.5q0 -61 60 -61q22 0 65 16t65 28z
M388 500l-31 -32l-145 123l47 49z" />
    <glyph glyph-name="aacute" unicode="&#xe1;" 
d="M459 0h-66v43q-86 -52 -157 -52q-42 0 -72.5 31.5t-30.5 82.5q0 53 43 85t106 34l108 4v44q0 43 -16.5 61t-50.5 18q-68 0 -137 -28l-21 51q83 34 168 34q60 0 93 -36.5t33 -92.5v-279zM390 177l-96 -4q-36 -2 -65.5 -17.5t-29.5 -47.5q0 -61 60 -61q22 0 65 16t65 28z
M427 591l-145 -123l-31 32l129 140z" />
    <glyph glyph-name="acircumflex" unicode="&#xe2;" 
d="M459 0h-66v43q-86 -52 -157 -52q-42 0 -72.5 31.5t-30.5 82.5q0 53 43 85t106 34l108 4v44q0 43 -16.5 61t-50.5 18q-68 0 -137 -28l-21 51q83 34 168 34q60 0 93 -36.5t33 -92.5v-279zM390 177l-96 -4q-36 -2 -65.5 -17.5t-29.5 -47.5q0 -61 60 -61q22 0 65 16t65 28z
M460 523l-34 -49l-116 87l-116 -87l-34 49l150 106z" />
    <glyph glyph-name="atilde" unicode="&#xe3;" 
d="M459 0h-66v43q-86 -52 -157 -52q-42 0 -72.5 31.5t-30.5 82.5q0 53 43 85t106 34l108 4v44q0 43 -16.5 61t-50.5 18q-68 0 -137 -28l-21 51q83 34 168 34q60 0 93 -36.5t33 -92.5v-279zM390 177l-96 -4q-36 -2 -65.5 -17.5t-29.5 -47.5q0 -61 60 -61q22 0 65 16t65 28z
M448 594q-5 -38 -28 -63.5t-53 -25.5q-24 0 -60.5 22t-49.5 22q-15 0 -30 -11.5t-17 -32.5l-38 12q4 40 27 66.5t52 26.5q24 0 60.5 -22.5t51.5 -22.5t28.5 10t16.5 29z" />
    <glyph glyph-name="adieresis" unicode="&#xe4;" 
d="M459 0h-66v43q-86 -52 -157 -52q-42 0 -72.5 31.5t-30.5 82.5q0 53 43 85t106 34l108 4v44q0 43 -16.5 61t-50.5 18q-68 0 -137 -28l-21 51q83 34 168 34q60 0 93 -36.5t33 -92.5v-279zM390 177l-96 -4q-36 -2 -65.5 -17.5t-29.5 -47.5q0 -61 60 -61q22 0 65 16t65 28z
M431 563q0 -19 -13.5 -32.5t-32.5 -13.5q-18 0 -31.5 13.5t-13.5 32.5t13.5 32t31.5 13q19 0 32.5 -13t13.5 -32zM280 563q0 -19 -13.5 -32.5t-31.5 -13.5q-19 0 -32.5 13.5t-13.5 32.5t13.5 32t32.5 13q18 0 31.5 -13t13.5 -32z" />
    <glyph glyph-name="aring" unicode="&#xe5;" 
d="M459 0h-66v43q-86 -52 -157 -52q-42 0 -72.5 31.5t-30.5 82.5q0 53 43 85t106 34l108 4v44q0 43 -16.5 61t-50.5 18q-68 0 -137 -28l-21 51q83 34 168 34q60 0 93 -36.5t33 -92.5v-279zM397 559q0 -38 -27.5 -63.5t-68.5 -25.5q-43 0 -70.5 25.5t-27.5 63.5
q0 39 26.5 65.5t71.5 26.5h1q43 0 69 -26t26 -66zM390 177l-96 -4q-36 -2 -65.5 -17.5t-29.5 -47.5q0 -61 60 -61q22 0 65 16t65 28zM351 560q0 23 -13.5 38.5t-36.5 15.5h-1q-22 0 -35 -16t-13 -39q0 -21 13.5 -37t34.5 -16q23 0 37 15.5t14 38.5z" />
    <glyph glyph-name="ae" unicode="&#xe6;" 
d="M493 41q-51 -51 -108 -51q-78 0 -101 79q-24 -48 -38 -59q-22 -19 -65 -19q-32 0 -57 29.5t-25 84.5q0 54 26.5 84.5t68.5 33.5l64 5v44q0 44 -10.5 61.5t-32.5 17.5q-44 0 -91 -29l-23 47q68 39 121 39q52 0 70 -52q26 52 82 52q53 0 80 -46t37 -132l-22 -30l-149 -21
q5 -64 20.5 -97.5t49.5 -33.5q8 0 14.5 1t11.5 2t10.5 3t8.5 3.5t8 5.5l7 5.5t7 6t7 5.5zM258 160v17l-50 -4q-49 -4 -49 -63q0 -63 36 -63q24 0 43.5 29.5t19.5 83.5zM422 250q-1 5 -3 20.5t-3 22t-3.5 19t-6 18l-8 12.5t-11 10t-15.5 3q-51 0 -51 -124z" />
    <glyph glyph-name="ccedilla" unicode="&#xe7;" 
d="M485 40q-73 -44 -145 -48l-25 -42q28 -8 48 -27.5t20 -49.5q0 -34 -29 -53.5t-70 -19.5q-33 0 -67 18v36q40 -20 68 -20q18 0 32.5 10.5t14.5 31.5q0 37 -76 52l34 65q-74 11 -118.5 66.5t-44.5 131.5q0 95 55 156.5t139 61.5q63 0 136 -40l-26 -49q-66 33 -110 33
q-54 0 -89 -43t-35 -112q0 -65 35 -107.5t97 -42.5q57 0 131 39z" />
    <glyph glyph-name="egrave" unicode="&#xe8;" 
d="M493 41q-27 -19 -76 -35t-102 -16q-88 0 -142 54.5t-54 145.5q0 93 49.5 155.5t129.5 62.5q83 0 126 -42.5t62 -120.5l-30 -38l-263 -39q12 -116 129 -116q73 0 142 40zM407 257q-22 95 -106 95q-47 0 -80 -38.5t-33 -95.5zM388 500l-31 -32l-145 123l47 49z" />
    <glyph glyph-name="eacute" unicode="&#xe9;" 
d="M493 41q-27 -19 -76 -35t-102 -16q-88 0 -142 54.5t-54 145.5q0 93 49.5 155.5t129.5 62.5q83 0 126 -42.5t62 -120.5l-30 -38l-263 -39q12 -116 129 -116q73 0 142 40zM407 257q-22 95 -106 95q-47 0 -80 -38.5t-33 -95.5zM388 591l-145 -123l-31 32l129 140z" />
    <glyph glyph-name="ecircumflex" unicode="&#xea;" 
d="M493 41q-27 -19 -76 -35t-102 -16q-88 0 -142 54.5t-54 145.5q0 93 49.5 155.5t129.5 62.5q83 0 126 -42.5t62 -120.5l-30 -38l-263 -39q12 -116 129 -116q73 0 142 40zM407 257q-22 95 -106 95q-47 0 -80 -38.5t-33 -95.5zM450 523l-34 -49l-116 87l-116 -87l-34 49
l150 106z" />
    <glyph glyph-name="edieresis" unicode="&#xeb;" 
d="M493 41q-27 -19 -76 -35t-102 -16q-88 0 -142 54.5t-54 145.5q0 93 49.5 155.5t129.5 62.5q83 0 126 -42.5t62 -120.5l-30 -38l-263 -39q12 -116 129 -116q73 0 142 40zM407 257q-22 95 -106 95q-47 0 -80 -38.5t-33 -95.5zM421 563q0 -19 -13.5 -32.5t-32.5 -13.5
q-18 0 -31.5 13.5t-13.5 32.5t13.5 32t31.5 13q19 0 32.5 -13t13.5 -32zM270 563q0 -19 -13.5 -32.5t-31.5 -13.5q-19 0 -32.5 13.5t-13.5 32.5t13.5 32t32.5 13q18 0 31.5 -13t13.5 -32z" />
    <glyph glyph-name="igrave" unicode="&#xec;" 
d="M478 0h-216v337h-148v57h216v-334h148v-60zM358 500l-31 -32l-145 123l47 49z" />
    <glyph glyph-name="iacute" unicode="&#xed;" 
d="M478 0h-216v337h-148v57h216v-334h148v-60zM388 591l-145 -123l-31 32l129 140z" />
    <glyph glyph-name="icircumflex" unicode="&#xee;" 
d="M478 0h-216v337h-148v57h216v-334h148v-60zM450 523l-34 -49l-116 87l-116 -87l-34 49l150 106z" />
    <glyph glyph-name="idieresis" unicode="&#xef;" 
d="M478 0h-216v337h-148v57h216v-334h148v-60zM421 563q0 -19 -13.5 -32.5t-32.5 -13.5q-18 0 -31.5 13.5t-13.5 32.5t13.5 32t31.5 13q19 0 32.5 -13t13.5 -32zM270 563q0 -19 -13.5 -32.5t-31.5 -13.5q-19 0 -32.5 13.5t-13.5 32.5t13.5 32t32.5 13q18 0 31.5 -13
t13.5 -32z" />
    <glyph glyph-name="eth" unicode="&#xf0;" 
d="M545 460h-64v-460h-66v46q-66 -51 -133 -51q-76 0 -123.5 56t-47.5 145q0 88 53 150t140 62q54 0 108 -22v74h-119v58h119v76h69v-76h64v-58zM412 104v223q-61 26 -112 26q-57 0 -88 -43t-31 -108q0 -149 114 -149q49 0 117 51z" />
    <glyph glyph-name="ntilde" unicode="&#xf1;" 
d="M475 0h-69v262q0 43 -19.5 64.5t-52.5 21.5q-12 0 -33 -9.5t-38 -19.5l-40.5 -24.5l-28.5 -17.5v-277h-69v394h66v-60l24.5 16.5l27 18t25.5 15t29.5 14t29.5 8t34 3.5q48 0 81 -36t33 -98v-275zM438 594q-5 -38 -28 -63.5t-53 -25.5q-24 0 -60.5 22t-49.5 22
q-15 0 -30 -11.5t-17 -32.5l-38 12q4 40 27 66.5t52 26.5q24 0 60.5 -22.5t51.5 -22.5t28.5 10t16.5 29z" />
    <glyph glyph-name="ograve" unicode="&#xf2;" 
d="M487 201q0 -87 -53 -149t-139 -62t-138 59.5t-52 148.5q0 86 53 148.5t137 62.5q85 0 138.5 -61t53.5 -147zM414 201q0 63 -32.5 107.5t-88.5 44.5q-55 0 -85 -43.5t-30 -111.5q0 -66 31.5 -109.5t88.5 -43.5q56 0 86 45t30 111zM388 500l-31 -32l-145 123l47 49z" />
    <glyph glyph-name="oacute" unicode="&#xf3;" 
d="M487 201q0 -87 -53 -149t-139 -62t-138 59.5t-52 148.5q0 86 53 148.5t137 62.5q85 0 138.5 -61t53.5 -147zM414 201q0 63 -32.5 107.5t-88.5 44.5q-55 0 -85 -43.5t-30 -111.5q0 -66 31.5 -109.5t88.5 -43.5q56 0 86 45t30 111zM388 591l-145 -123l-31 32l129 140z" />
    <glyph glyph-name="ocircumflex" unicode="&#xf4;" 
d="M487 201q0 -87 -53 -149t-139 -62t-138 59.5t-52 148.5q0 86 53 148.5t137 62.5q85 0 138.5 -61t53.5 -147zM414 201q0 63 -32.5 107.5t-88.5 44.5q-55 0 -85 -43.5t-30 -111.5q0 -66 31.5 -109.5t88.5 -43.5q56 0 86 45t30 111zM450 523l-34 -49l-116 87l-116 -87
l-34 49l150 106z" />
    <glyph glyph-name="otilde" unicode="&#xf5;" 
d="M487 201q0 -87 -53 -149t-139 -62t-138 59.5t-52 148.5q0 86 53 148.5t137 62.5q85 0 138.5 -61t53.5 -147zM414 201q0 63 -32.5 107.5t-88.5 44.5q-55 0 -85 -43.5t-30 -111.5q0 -66 31.5 -109.5t88.5 -43.5q56 0 86 45t30 111zM438 594q-5 -38 -28 -63.5t-53 -25.5
q-24 0 -60.5 22t-49.5 22q-15 0 -30 -11.5t-17 -32.5l-38 12q4 40 27 66.5t52 26.5q24 0 60.5 -22.5t51.5 -22.5t28.5 10t16.5 29z" />
    <glyph glyph-name="odieresis" unicode="&#xf6;" 
d="M487 201q0 -87 -53 -149t-139 -62t-138 59.5t-52 148.5q0 86 53 148.5t137 62.5q85 0 138.5 -61t53.5 -147zM414 201q0 63 -32.5 107.5t-88.5 44.5q-55 0 -85 -43.5t-30 -111.5q0 -66 31.5 -109.5t88.5 -43.5q56 0 86 45t30 111zM421 563q0 -19 -13.5 -32.5t-32.5 -13.5
q-18 0 -31.5 13.5t-13.5 32.5t13.5 32t31.5 13q19 0 32.5 -13t13.5 -32zM270 563q0 -19 -13.5 -32.5t-31.5 -13.5q-19 0 -32.5 13.5t-13.5 32.5t13.5 32t32.5 13q18 0 31.5 -13t13.5 -32z" />
    <glyph glyph-name="divide" unicode="&#xf7;" 
d="M500 172h-400v54h400v-54zM358 50q0 -24 -17 -41t-41 -17t-41 17t-17 41t17 41t41 17t41 -17t17 -41zM358 348q0 -24 -17 -41t-41 -17t-41 17t-17 41t17 41t41 17t41 -17t17 -41z" />
    <glyph glyph-name="oslash" unicode="&#xf8;" 
d="M507 408l-65 -75q47 -60 47 -132q0 -85 -55 -148t-137 -63q-63 0 -112 38l-58 -68l-42 36l62 71q-41 59 -41 131q0 85 54.5 148t135.5 63q59 0 111 -40l58 67zM416 205q-2 41 -18 75l-174 -204q34 -32 78 -31q53 2 84.5 49t29.5 111zM367 322q-32 32 -75 31
q-53 -1 -83.5 -47.5t-28.5 -111.5q2 -42 14 -72z" />
    <glyph glyph-name="ugrave" unicode="&#xf9;" 
d="M469 0h-66v50q-2 -1 -14 -8.5t-15 -9.5t-14.5 -8.5l-16 -9t-15.5 -7.5t-17.5 -7l-17 -5.5t-19 -5t-19 -2.5t-21.5 -1q-50 0 -76.5 34.5t-26.5 99.5v274h69v-261q0 -45 14.5 -65.5t46.5 -20.5q21 0 66.5 21.5t72.5 39.5v286h69v-394zM388 500l-31 -32l-145 123l47 49z" />
    <glyph glyph-name="uacute" unicode="&#xfa;" 
d="M469 0h-66v50q-2 -1 -14 -8.5t-15 -9.5t-14.5 -8.5l-16 -9t-15.5 -7.5t-17.5 -7l-17 -5.5t-19 -5t-19 -2.5t-21.5 -1q-50 0 -76.5 34.5t-26.5 99.5v274h69v-261q0 -45 14.5 -65.5t46.5 -20.5q21 0 66.5 21.5t72.5 39.5v286h69v-394zM388 591l-145 -123l-31 32l129 140z
" />
    <glyph glyph-name="ucircumflex" unicode="&#xfb;" 
d="M469 0h-66v50q-2 -1 -14 -8.5t-15 -9.5t-14.5 -8.5l-16 -9t-15.5 -7.5t-17.5 -7l-17 -5.5t-19 -5t-19 -2.5t-21.5 -1q-50 0 -76.5 34.5t-26.5 99.5v274h69v-261q0 -45 14.5 -65.5t46.5 -20.5q21 0 66.5 21.5t72.5 39.5v286h69v-394zM450 523l-34 -49l-116 87l-116 -87
l-34 49l150 106z" />
    <glyph glyph-name="udieresis" unicode="&#xfc;" 
d="M469 0h-66v50q-2 -1 -14 -8.5t-15 -9.5t-14.5 -8.5l-16 -9t-15.5 -7.5t-17.5 -7l-17 -5.5t-19 -5t-19 -2.5t-21.5 -1q-50 0 -76.5 34.5t-26.5 99.5v274h69v-261q0 -45 14.5 -65.5t46.5 -20.5q21 0 66.5 21.5t72.5 39.5v286h69v-394zM421 563q0 -19 -13.5 -32.5
t-32.5 -13.5q-18 0 -31.5 13.5t-13.5 32.5t13.5 32t31.5 13q19 0 32.5 -13t13.5 -32zM270 563q0 -19 -13.5 -32.5t-31.5 -13.5q-19 0 -32.5 13.5t-13.5 32.5t13.5 32t32.5 13q18 0 31.5 -13t13.5 -32z" />
    <glyph glyph-name="yacute" unicode="&#xfd;" 
d="M486 388l-195 -453q-65 -151 -156 -160l-15 58q35 7 68 42t55 101l14 43l-151 369l71 21l119 -319l127 319zM388 591l-145 -123l-31 32l129 140z" />
    <glyph glyph-name="thorn" unicode="&#xfe;" 
d="M490 220q0 -100 -64 -165t-154 -65q-44 0 -94 13v-214h-68v806h67v-232q1 1 20 10t28 12.5l27 10.5t34 9.5t32 2.5q73 0 122.5 -54.5t49.5 -133.5zM418 205q1 63 -30.5 104t-89.5 41q-37 0 -121 -44v-240q56 -20 95 -20q56 0 101 50t45 109z" />
    <glyph glyph-name="ydieresis" unicode="&#xff;" 
d="M486 388l-195 -453q-65 -151 -156 -160l-15 58q35 7 68 42t55 101l14 43l-151 369l71 21l119 -319l127 319zM421 563q0 -19 -13.5 -32.5t-32.5 -13.5q-18 0 -31.5 13.5t-13.5 32.5t13.5 32t31.5 13q19 0 32.5 -13t13.5 -32zM270 563q0 -19 -13.5 -32.5t-31.5 -13.5
q-19 0 -32.5 13.5t-13.5 32.5t13.5 32t32.5 13q18 0 31.5 -13t13.5 -32z" />
    <glyph glyph-name="dotlessi" unicode="&#x131;" 
d="M478 0h-216v337h-148v57h216v-334h148v-60z" />
    <glyph glyph-name="Lslash" unicode="&#x141;" 
d="M501 0h-370v274l-64 -34l-27 52l91 48v237h74v-197l133 70l28 -51l-161 -86v-252h296v-61z" />
    <glyph glyph-name="lslash" unicode="&#x142;" 
d="M482 0h-216v286l-107 -57l-27 52l134 71v167h-148v58h216v-189l96 51l28 -51l-124 -66v-262h148v-60z" />
    <glyph glyph-name="OE" unicode="&#x152;" 
d="M485 0h-193q-20 -9 -35 -9q-73 0 -111.5 84t-38.5 214q0 134 42.5 217.5t107.5 83.5q20 0 44 -13h160v-59h-92v-193h84v-57h-84v-210h116v-58zM295 67v441q-18 20 -42 20q-76 0 -76 -221q0 -32 0.5 -53.5t3 -55t8 -56t14 -44.5t23.5 -33.5t34 -11.5q21 0 35 14z" />
    <glyph glyph-name="oe" unicode="&#x153;" 
d="M528 41q-51 -51 -109 -51q-67 0 -102 87q-40 -87 -103 -87q-57 0 -94 56.5t-37 151.5q0 93 37.5 152t93.5 59q60 0 101 -87q16 42 37 64t56 22q91 0 117 -163l-21 -38l-152 -39q7 -60 22.5 -91t49.5 -31q46 0 85 29zM289 205q-2 62 -23.5 106.5t-55.5 43.5
q-35 -2 -54 -48.5t-17 -112.5t23 -109t56 -42q35 2 54 49t17 113zM468 251q-5 32 -10 50.5t-17.5 37t-31.5 18.5q-29 0 -44.5 -39t-15.5 -100z" />
    <glyph glyph-name="Scaron" unicode="&#x160;" 
d="M479 141q0 -74 -50.5 -116.5t-146.5 -42.5q-76 0 -169 48l34 62q78 -44 140 -44q51 0 82 23.5t31 64.5q0 40 -26.5 70.5t-64 52l-75.5 44.5t-64.5 60.5t-26.5 87.5q0 61 47.5 103.5t118.5 42.5q86 0 158 -40l-31 -59q-69 38 -130 38q-33 0 -58 -22.5t-25 -57.5
q0 -34 26.5 -63t64 -51t75 -47t64 -64.5t26.5 -89.5zM443 723l-143 -102l-145 102l35 49l110 -83l108 82z" />
    <glyph glyph-name="scaron" unicode="&#x161;" 
d="M450 108q0 -51 -41.5 -84t-114.5 -33t-152 36l32 55q66 -33 118 -33q33 0 60 12.5t27 38.5q0 24 -22 42t-53.5 31.5t-63 28.5t-53.5 40.5t-22 60.5q0 51 42.5 78.5t100.5 27.5q62 0 136 -30l-30 -53q-57 27 -108 27q-28 0 -50.5 -12t-22.5 -35q0 -24 34 -44.5t74.5 -35
t74.5 -45t34 -73.5zM443 573l-143 -102l-145 102l35 49l110 -83l108 82z" />
    <glyph glyph-name="Ydieresis" unicode="&#x178;" 
d="M497 566l-163 -343v-223h-74v221l-157 346l77 20l120 -300l127 301zM421 713q0 -19 -13.5 -32.5t-32.5 -13.5q-18 0 -31.5 13.5t-13.5 32.5t13.5 32t31.5 13q19 0 32.5 -13t13.5 -32zM270 713q0 -19 -13.5 -32.5t-31.5 -13.5q-19 0 -32.5 13.5t-13.5 32.5t13.5 32
t32.5 13q18 0 31.5 -13t13.5 -32z" />
    <glyph glyph-name="Zcaron" unicode="&#x17d;" 
d="M486 530l-288 -470h287v-60h-379v48l289 471h-252v58h343v-47zM443 723l-143 -102l-145 102l35 49l110 -83l108 82z" />
    <glyph glyph-name="zcaron" unicode="&#x17e;" 
d="M466 0h-340v40l241 297h-238v57h329v-43l-235 -291h243v-60zM443 573l-143 -102l-145 102l35 49l110 -83l108 82z" />
    <glyph glyph-name="florin" unicode="&#x192;" 
d="M516 337h-181v-424q0 -64 -34.5 -101t-79.5 -37q-30 0 -73 12l14 57q25 -10 39 -10q66 0 66 74v429h-114v57h113v58q0 64 34 101t79 37q32 0 73 -12l-14 -57q-25 10 -38 10q-66 0 -66 -74v-63h182v-57z" />
    <glyph glyph-name="circumflex" unicode="&#x2c6;" 
d="M450 523l-34 -49l-116 87l-116 -87l-34 49l150 106z" />
    <glyph glyph-name="caron" unicode="&#x2c7;" 
d="M444 573l-143 -102l-145 102l35 49l110 -83l108 82z" />
    <glyph glyph-name="breve" unicode="&#x2d8;" 
d="M414 600q0 -52 -30.5 -83.5t-83.5 -31.5q-57 0 -85.5 33t-28.5 82h47q3 -29 20.5 -47t45.5 -18q32 0 49.5 19t19.5 46h46z" />
    <glyph glyph-name="dotaccent" unicode="&#x2d9;" 
d="M352 562q0 -22 -15 -37t-37 -15t-37 15t-15 37q0 21 15 36.5t37 15.5t37 -15.5t15 -36.5z" />
    <glyph glyph-name="ring" unicode="&#x2da;" 
d="M397 559q0 -38 -27.5 -63.5t-68.5 -25.5q-43 0 -70.5 25.5t-27.5 63.5q0 39 26.5 65.5t71.5 26.5h1q43 0 69 -26t26 -66zM351 560q0 23 -13.5 38.5t-36.5 15.5h-1q-22 0 -35 -16t-13 -39q0 -21 13.5 -37t34.5 -16q23 0 37 15.5t14 38.5z" />
    <glyph glyph-name="ogonek" unicode="&#x2db;" 
d="M377 -183q-27 -14 -71 -14q-36 0 -59.5 21t-23.5 56q0 34 33 71t64 49h52q-40 -22 -69 -52t-29 -58q0 -52 47 -52q26 0 56 13v-34z" />
    <glyph glyph-name="tilde" unicode="&#x2dc;" 
d="M438 594q-5 -38 -28 -63.5t-53 -25.5q-24 0 -60.5 22t-49.5 22q-15 0 -30 -11.5t-17 -32.5l-38 12q4 40 27 66.5t52 26.5q24 0 60.5 -22.5t51.5 -22.5t28.5 10t16.5 29z" />
    <glyph glyph-name="hungarumlaut" unicode="&#x2dd;" 
d="M465 585l-153 -113l-29 34l138 131zM311 591l-145 -123l-31 32l129 140z" />
    <glyph glyph-name="endash" unicode="&#x2013;" 
d="M457 184h-322v64h322v-64z" />
    <glyph glyph-name="emdash" unicode="&#x2014;" 
d="M517 184h-442v64h442v-64z" />
    <glyph glyph-name="quoteleft" unicode="&#x2018;" 
d="M366 649l-34 -87q-7 -19 -2 -38.5t20 -30.5q0 -24 -17 -41t-41 -17t-41 17t-17 41q0 14 7 26l78 151z" />
    <glyph glyph-name="quoteright" unicode="&#x2019;" 
d="M366 604q0 -14 -6 -26l-78 -151l-48 20l34 88q7 19 2 38t-20 30q0 25 17 42t41 17t41 -17t17 -41z" />
    <glyph glyph-name="quotesinglbase" unicode="&#x201a;" 
d="M366 50q0 -13 -6 -25l-78 -152l-48 21l34 87q7 19 2 38.5t-20 30.5q0 24 17 41t41 17t41 -17t17 -41z" />
    <glyph glyph-name="quotedblleft" unicode="&#x201c;" 
d="M450 647l-34 -87q-7 -19 -2 -38.5t20 -30.5q0 -24 -17 -41t-41 -17t-41 17t-17 41q0 13 6 25l78 152zM282 647l-34 -87q-7 -19 -2 -38.5t20 -30.5q0 -24 -17 -41t-41 -17t-41 17t-17 41q0 13 6 25l78 152z" />
    <glyph glyph-name="quotedblright" unicode="&#x201d;" 
d="M450 603q0 -14 -6 -26l-78 -151l-48 20l34 88q7 19 2 38t-20 30q0 25 17 42t41 17t41 -17t17 -41zM282 603q0 -14 -6 -26l-78 -151l-48 20l34 88q7 19 2 38t-20 30q0 25 17 42t41 17t41 -17t17 -41z" />
    <glyph glyph-name="quotedblbase" unicode="&#x201e;" 
d="M450 50q0 -13 -6 -25l-78 -152l-48 21l34 87q7 19 2 38.5t-20 30.5q0 24 17 41t41 17t41 -17t17 -41zM282 50q0 -13 -6 -25l-78 -152l-48 21l34 87q7 19 2 38.5t-20 30.5q0 24 17 41t41 17t41 -17t17 -41z" />
    <glyph glyph-name="dagger" unicode="&#x2020;" 
d="M334 -211h-75l9 561h55zM334 577l-11 -179h-54l-10 179h75zM482 341l-157 10v46l157 11v-67zM266 351l-156 -10v67l156 -11v-46z" />
    <glyph glyph-name="daggerdbl" unicode="&#x2021;" 
d="M325 3h-58l1 347h55zM334 577l-11 -179h-54l-10 179h75zM332 -225h-74l10 179h55zM482 341l-157 10v46l157 11v-67zM266 351l-156 -10v67l156 -11v-46zM266 -45l-156 -11v67l156 -10v-46zM481 -56l-156 11v46l156 10v-67z" />
    <glyph glyph-name="bullet" unicode="&#x2022;" 
d="M398 295q0 -43 -29.5 -72t-72.5 -29h-1q-42 0 -71 29t-29 72q-1 43 29 72.5t72 29.5t72 -29.5t30 -72.5z" />
    <glyph glyph-name="ellipsis" unicode="&#x2026;" 
d="M522 50q0 -24 -17 -41t-41 -17t-41 17t-17 41t17 41t41 17t41 -17t17 -41zM194 50q0 -24 -17 -41t-41 -17t-41 17t-17 41t17 41t41 17t41 -17t17 -41zM356 50q0 -24 -17 -41t-41 -17t-41 17t-17 41t17 41t41 17t41 -17t17 -41z" />
    <glyph glyph-name="perthousand" unicode="&#x2030;" 
d="M515 499l-229 -214q14 10 34 10q37 0 57 -37q22 37 58 37q79 0 79 -152q0 -155 -80 -155q-37 0 -58 36q-21 -36 -57 -36q-37 0 -58.5 38.5t-21.5 112.5q0 93 32 131l-160 -149l-35 36l148 140q-15 -12 -37 -12q-37 0 -58.5 38.5t-21.5 112.5q0 77 22 116.5t59 39.5
q79 0 79 -152q0 -101 -35 -136l246 231zM217 438q0 2 0.5 12t0.5 18t-0.5 20t-2.5 20.5t-5.5 17t-9 13t-13.5 4.5q-19 0 -24 -25t-5 -80q0 -56 5.5 -80.5t24.5 -24.5q20 0 24.5 23.5t4.5 81.5zM464 141q0 2 0.5 12t0 18t-1 20t-2.5 20.5t-5 17t-8.5 13t-13.5 4.5
q-19 0 -24 -25t-5 -80q0 -56 5.5 -80.5t24.5 -24.5q20 0 24.5 23.5t4.5 81.5zM349 141q0 2 0.5 12t0 18t-1 20t-2.5 20.5t-5 17t-8.5 13t-13.5 4.5q-19 0 -24 -25t-5 -80q0 -56 5.5 -80.5t24.5 -24.5q20 0 24.5 23.5t4.5 81.5z" />
    <glyph glyph-name="guilsinglleft" unicode="&#x2039;" 
d="M390 88l-44 -29l-144 155l143 155l45 -28l-126 -127z" />
    <glyph glyph-name="guilsinglright" unicode="&#x203a;" 
d="M390 214l-142 -155l-46 29l126 126l-125 126l44 29z" />
    <glyph glyph-name="fraction" unicode="&#x2044;" 
d="M429 568l-221 -579l-48 14l220 580z" />
    <glyph glyph-name="Euro" unicode="&#x20ac;" 
d="M499 21q-68 -35 -154 -35q-245 0 -245 307q0 139 71.5 219t194.5 80q66 0 116 -28l-23 -57q-54 22 -95 22q-60 0 -110.5 -37t-67.5 -118h259v-50h-266q-1 -9 -1 -28v-26h267v-50h-262q11 -90 53.5 -129t111.5 -39q30 0 54 4t37.5 9t40.5 16z" />
    <glyph glyph-name="trademark" unicode="&#x2122;" 
d="M500 386l-48 -2l-3 258l-39 -256h-43l-37 256l-6 -258l-45 2l13 333h61l38 -261l38 261h59zM257 678h-59v-292h-48v292h-58v41h165v-41z" />
    <glyph glyph-name="minus" unicode="&#x2212;" 
d="M500 172h-400v54h400v-54z" />
    <glyph glyph-name="fi" unicode="&#xfb01;" 
d="M483 0h-69v337h-181v-337h-69v337h-61v57h60v43q0 76 39 114.5t99 38.5q25 0 48.5 -3t45 -9t34 -10t30.5 -11.5t20 -8.5l-21 -55q-89 38 -151 38q-75 0 -75 -97v-40h251v-394z" />
    <glyph glyph-name="fl" unicode="&#xfb02;" 
d="M490 0h-69v504q-74 27 -114 27q-75 0 -75 -97v-40h100v-57h-99v-337h-69v337h-61v57h60v43q0 76 39 114.5t99 38.5q57 0 120 -23v10h69v-577z" />
    <glyph glyph-name="eurocurrency" 
d="M509 456l-72 -72q30 -43 30 -95t-30 -95l71 -72l-41 -42l-72 72q-43 -29 -95 -29q-50 0 -94 29l-73 -72l-41 42l72 72q-30 43 -30 95t30 95l-73 73l41 42l74 -73q44 29 94 29q52 0 95 -29l73 72zM408 289q0 44 -31.5 75.5t-76.5 31.5q-44 0 -75.5 -31.5t-31.5 -75.5
t31.5 -75.5t75.5 -31.5q45 0 76.5 31.5t31.5 75.5z" />
  </font>
</defs>
</svg>
