<svg xmlns="http://www.w3.org/2000/svg" viewBox="0 0 38.03 23.23" id="logo-shortology" class="sp-logo">
	<g id="Logo-shortology" data-name="Logo-shortology">
		<path class="sp-logo-shortology" d="M19,8.63H35.92A7.58,7.58,0,0,0,38,5.69H19.39c-3,0-6,.42-6.76,2.95a3.09,3.09,0,0,1,3,3.08A3.18,3.18,0,0,1,15.34,13h3.77a.61.61,0,1,1,0,1.23H17.4a4.34,4.34,0,0,1,.9,2.93v.39h.41c3.22,0,6.84-.44,6.84-4,0-2.38-1.13-3.64-4.44-3.64H18.9a.61.61,0,0,1,0-1.23H19Zm-4.2,10.83V17.94a.47.47,0,0,1,.22-.4.43.43,0,0,1,.51,0,.47.47,0,0,1,.22.4v2a8.82,8.82,0,0,0,1.31.4V17.15c0-2.19-1-2.85-2.7-2.93H10.51a8.84,8.84,0,0,0,1.54,2.93l.32.38a8.92,8.92,0,0,0,2.43,1.92m-4.2-7.74a1.91,1.91,0,0,0,1.92,1.92A1.82,1.82,0,0,0,13.91,13l0-.05a1.94,1.94,0,0,0,.43-1.22,1.86,1.86,0,0,0-1.85-1.86h-.05a1.87,1.87,0,0,0-1.87,1.85M9,9.86H2.68a7.58,7.58,0,0,0,2.1,2.94H7.46a11.49,11.49,0,0,0,.22,1.32,11.5,11.5,0,0,0,1.72,4,11.9,11.9,0,0,0,.74,1,11.76,11.76,0,0,0,1.75,1.69,11.62,11.62,0,0,0,2.94,1.67c.25.1.51.19.77.27a11.7,11.7,0,0,0,2.61.48l.55,0h.47c.34,0,.68,0,1-.06A11.64,11.64,0,0,0,30.57,12.8h2.67a7.58,7.58,0,0,0,2.1-2.94H29A10.1,10.1,0,0,1,19,21.75l-.71,0a10.29,10.29,0,0,1-2.72-.57c-.26-.09-.51-.2-.76-.31a10.15,10.15,0,0,1-3.74-2.92l-.29-.38a10,10,0,0,1-1.51-3.07l-.06-.19,0-.07c-.08-.31-.15-.63-.2-.94A9.86,9.86,0,0,1,9,9.86m17.14-5.4h2A11.6,11.6,0,0,0,9,5.69H0A7.57,7.57,0,0,0,2.1,8.63H9.33A10.13,10.13,0,0,1,26.18,4.46"/>
		<path class="sp-logo-shortology" d="M33.37,15.83H33v-.55h.33c.29,0,.42.06.42.26s-.1.29-.4.29m.82,1.2-.5-.9a.5.5,0,0,0,.5-.55c0-.45-.29-.62-.8-.62h-.78V17H33v-.88h.25l.46.88Zm.61-1a1.43,1.43,0,0,1-1.46,1.46,1.46,1.46,0,0,1,0-2.91A1.43,1.43,0,0,1,34.8,16m.37,0a1.8,1.8,0,0,0-1.83-1.82,1.82,1.82,0,0,0,0,3.65A1.8,1.8,0,0,0,35.16,16"/>
	</g>
</svg>