<svg xmlns="http://www.w3.org/2000/svg" viewBox="0 0 118.05 32.13" id="logo-h57" class="sp-logo">
	<g id="Logo-h57" data-name="Logo-h57">
		<path class="sp-logo-h57" d="M2.76,20.17.23,18.27l3.15,0,1-3,1,3,3.15,0L6,20.17l.94,3L4.39,21.36,1.82,23.19ZM0,23.39H14.31V8.52H0Zm21.66,0H24.2V8.52H21.66v6.06H19V8.52H16.4V23.4H19V16.8h2.7ZM25.24,17h2.69V15.11H25.24Zm10.88,2V16.93c0-2.49-.76-3.92-2.71-3.92a2.13,2.13,0,0,0-1.95.87l.1-3.26h4l.08-2.1H29.48c0,3.53-.1,5.34-.18,7.65h2A1.43,1.43,0,0,1,32.63,15c.58,0,1.07.39,1.07,1.36v3.38c0,1.34-.45,1.81-1.25,1.81a1.14,1.14,0,0,1-1.13-1.3v-1.2H29v1.14c0,2.47,1.6,3.38,3.65,3.38,2.46,0,3.44-1.48,3.44-4.62m8.25-9V8.52H37.68v2.1h4.24L39,23.4h2.4Z"/>
		<path class="sp-logo-h57" d="M47,9.27h-.35V8.72H47c.29,0,.42.06.42.26s-.1.29-.4.29M47.8,9c0-.45-.29-.62-.8-.62h-.78v2.07h.41V9.59h.25l.46.88h.45l-.5-.9A.5.5,0,0,0,47.8,9"/>
		<path class="sp-logo-h57" d="M47,10.89A1.46,1.46,0,0,1,47,8a1.46,1.46,0,1,1,0,2.91m0-3.28a1.82,1.82,0,0,0,0,3.65,1.82,1.82,0,1,0,0-3.65"/>
		<rect class="sp-logo-h57" x="52.49" width="1.42" height="32.13"/>
		<rect class="sp-logo-h57" x="116.63" width="1.42" height="32.13"/>
		<path class="sp-logo-h57" d="M61.09,12v0a3.3,3.3,0,0,1,3.38-3.35,3.35,3.35,0,0,1,2.56,1l-.91,1A2.39,2.39,0,0,0,64.46,10a1.92,1.92,0,0,0-1.88,2v0a1.93,1.93,0,0,0,1.88,2,2.34,2.34,0,0,0,1.71-.76l.91.92a3.32,3.32,0,0,1-2.66,1.16A3.28,3.28,0,0,1,61.09,12"/>
		<path class="sp-logo-h57" d="M71.08,12.09c1,0,1.67-.5,1.67-1.33v0c0-.8-.61-1.28-1.66-1.28h-2v2.63ZM68.36,8.78h2.79A2.55,2.55,0,0,1,73,9.43a1.79,1.79,0,0,1,.5,1.28v0a1.9,1.9,0,0,1-1.76,1.89l2,2.65h-.9l-1.88-2.52H69.09v2.52h-.73Z"/>
		<polygon class="sp-logo-h57" points="75.06 8.78 79.75 8.78 79.75 9.44 75.79 9.44 75.79 11.66 79.33 11.66 79.33 12.33 75.79 12.33 75.79 14.6 79.8 14.6 79.8 15.27 75.06 15.27 75.06 8.78"/>
		<path class="sp-logo-h57" d="M85.48,12.89,84,9.58l-1.48,3.31ZM83.67,8.73h.69l3,6.53h-.79l-.76-1.71H82.24l-.77,1.71h-.75Z"/>
		<polygon class="sp-logo-h57" points="89.48 9.45 87.3 9.45 87.3 8.78 92.4 8.78 92.4 9.45 90.22 9.45 90.22 15.26 89.48 15.26 89.48 9.45"/>
		<rect class="sp-logo-h57" x="93.84" y="8.78" width="0.73" height="6.49"/>
		<polygon class="sp-logo-h57" points="95.92 8.78 96.73 8.78 99.04 14.37 101.36 8.78 102.14 8.78 99.35 15.31 98.7 15.31 95.92 8.78"/>
		<polygon class="sp-logo-h57" points="103.42 8.78 108.11 8.78 108.11 9.44 104.16 9.44 104.16 11.66 107.7 11.66 107.7 12.33 104.16 12.33 104.16 14.6 108.16 14.6 108.16 15.27 103.42 15.27 103.42 8.78"/>
		<path class="sp-logo-h57" d="M61.48,22.4l.84-1a3,3,0,0,0,1.94.79c.58,0,.94-.23.94-.61v0c0-.36-.22-.55-1.31-.82-1.31-.33-2.15-.69-2.15-2v0a2,2,0,0,1,2.27-2,3.76,3.76,0,0,1,2.41.82l-.74,1.08A3,3,0,0,0,64,18c-.55,0-.83.25-.83.57v0c0,.43.28.56,1.4.85,1.32.34,2.06.82,2.06,1.95v0c0,1.29-1,2-2.38,2a4.13,4.13,0,0,1-2.75-1"/>
		<polygon class="sp-logo-h57" points="69.71 17.54 67.53 17.54 67.53 16.86 72.63 16.86 72.63 17.54 70.45 17.54 70.45 23.35 69.71 23.35 69.71 17.54"/>
		<path class="sp-logo-h57" d="M77.38,21,75.9,17.67,74.42,21Zm-1.81-4.16h.69l3,6.53h-.79l-.76-1.71H74.13l-.77,1.71h-.75Z"/>
		<polygon class="sp-logo-h57" points="81.38 17.54 79.2 17.54 79.2 16.86 84.3 16.86 84.3 17.54 82.12 17.54 82.12 23.35 81.38 23.35 81.38 17.54"/>
		<rect class="sp-logo-h57" x="85.73" y="16.86" width="0.73" height="6.49"/>
		<path class="sp-logo-h57" d="M93.94,20.12v0a2.58,2.58,0,0,0-2.56-2.68,2.55,2.55,0,0,0-2.54,2.66v0a2.58,2.58,0,0,0,2.56,2.68,2.55,2.55,0,0,0,2.54-2.66m-5.86,0v0a3.31,3.31,0,1,1,6.62,0s0,0,0,0a3.31,3.31,0,1,1-6.62,0"/>
		<polygon class="sp-logo-h57" points="96.25 16.86 96.94 16.86 101.02 22.06 101.02 16.86 101.74 16.86 101.74 23.35 101.15 23.35 96.96 18.03 96.96 23.35 96.25 23.35 96.25 16.86"/>
		<path class="sp-logo-h57" d="M110.72,9.3h-.35V8.75h.33c.29,0,.42.06.42.26s-.1.29-.4.29m.82,1.2-.5-.9a.5.5,0,0,0,.5-.55c0-.45-.29-.62-.8-.62H110V10.5h.41V9.62h.25l.46.88Zm.61-1a1.43,1.43,0,0,1-1.46,1.46,1.46,1.46,0,0,1,0-2.91,1.43,1.43,0,0,1,1.46,1.46m.37,0a1.8,1.8,0,0,0-1.83-1.82,1.82,1.82,0,0,0,0,3.65,1.8,1.8,0,0,0,1.83-1.82"/>
	</g>
</svg>